<svg width="275" height="121" viewBox="0 0 275 121" fill="none" xmlns="http://www.w3.org/2000/svg">
<path opacity="0.48" d="M273.175 111.17C273.976 110.958 274.453 110.137 274.24 109.336C274.028 108.535 273.207 108.058 272.406 108.27L273.175 111.17ZM149.297 108.424L150.001 107.1L149.297 108.424ZM3.5 93.0001L2.09679 93.5302L3.5 93.0001ZM35.4685 0.867864C34.6816 0.609018 33.8338 1.03713 33.5749 1.82408L29.3568 14.6482C29.0979 15.4351 29.5261 16.2829 30.313 16.5417C31.0999 16.8006 31.9477 16.3725 32.2066 15.5855L35.9561 4.18635L47.3553 7.93583C48.1422 8.19467 48.99 7.76656 49.2488 6.97961C49.5077 6.19267 49.0796 5.34488 48.2926 5.08603L35.4685 0.867864ZM269.434 109.008C268.628 109.2 268.131 110.009 268.323 110.815C268.515 111.621 269.324 112.118 270.13 111.926L269.434 109.008ZM263.959 113.319C264.769 113.146 265.285 112.348 265.111 111.538C264.937 110.728 264.14 110.212 263.33 110.386L263.959 113.319ZM257.189 111.639C256.375 111.797 255.844 112.585 256.002 113.398C256.16 114.211 256.947 114.742 257.76 114.584L257.189 111.639ZM251.545 115.732C252.361 115.589 252.907 114.812 252.764 113.996C252.621 113.18 251.843 112.634 251.027 112.777L251.545 115.732ZM244.824 113.805C244.005 113.933 243.445 114.7 243.573 115.519C243.701 116.337 244.468 116.897 245.287 116.769L244.824 113.805ZM239.056 117.683C239.877 117.571 240.451 116.814 240.338 115.993C240.226 115.173 239.469 114.599 238.649 114.711L239.056 117.683ZM232.429 115.502C231.606 115.598 231.017 116.343 231.113 117.166C231.21 117.989 231.955 118.578 232.778 118.482L232.429 115.502ZM226.489 119.152C227.314 119.073 227.918 118.34 227.839 117.516C227.76 116.691 227.027 116.087 226.203 116.166L226.489 119.152ZM219.973 116.695C219.147 116.756 218.527 117.475 218.587 118.301C218.648 119.127 219.367 119.748 220.193 119.687L219.973 116.695ZM213.877 120.076C214.704 120.036 215.342 119.332 215.301 118.504C215.26 117.677 214.556 117.039 213.729 117.08L213.877 120.076ZM207.478 117.308C206.65 117.327 205.994 118.013 206.013 118.842C206.032 119.67 206.719 120.326 207.547 120.307L207.478 117.308ZM201.214 120.362C202.043 120.367 202.718 119.7 202.723 118.871C202.728 118.043 202.061 117.367 201.232 117.362L201.214 120.362ZM194.992 117.226C194.164 117.195 193.467 117.84 193.435 118.668C193.404 119.496 194.049 120.192 194.877 120.224L194.992 117.226ZM188.542 119.869C189.368 119.931 190.087 119.311 190.149 118.485C190.211 117.659 189.591 116.939 188.765 116.878L188.542 119.869ZM182.565 116.291C181.742 116.195 180.998 116.785 180.903 117.608C180.807 118.431 181.397 119.175 182.22 119.271L182.565 116.291ZM175.922 118.395C176.74 118.528 177.511 117.974 177.645 117.157C177.779 116.339 177.224 115.568 176.407 115.434L175.922 118.395ZM170.303 114.27C169.494 114.092 168.694 114.604 168.516 115.413C168.338 116.222 168.85 117.022 169.659 117.2L170.303 114.27ZM163.469 115.639C164.266 115.868 165.096 115.407 165.325 114.611C165.553 113.814 165.092 112.984 164.296 112.755L163.469 115.639ZM158.43 110.844C157.652 110.557 156.79 110.955 156.504 111.733C156.217 112.51 156.616 113.372 157.393 113.659L158.43 110.844ZM151.463 111.185C152.213 111.538 153.106 111.216 153.459 110.466C153.812 109.717 153.49 108.823 152.74 108.47L151.463 111.185ZM147.353 105.698C146.62 105.311 145.713 105.592 145.327 106.325C144.94 107.058 145.221 107.965 145.954 108.351L147.353 105.698ZM140.765 105.638C141.5 106.019 142.405 105.732 142.787 104.996C143.168 104.261 142.881 103.356 142.145 102.974L140.765 105.638ZM137.011 100.336C136.272 99.96 135.369 100.254 134.993 100.992C134.617 101.73 134.911 102.633 135.649 103.009L137.011 100.336ZM130.375 100.35C131.116 100.72 132.017 100.419 132.387 99.6775C132.757 98.9363 132.456 98.0355 131.715 97.6654L130.375 100.35ZM126.55 95.1128C125.805 94.7489 124.907 95.0572 124.543 95.8014C124.179 96.5456 124.488 97.4439 125.232 97.8079L126.55 95.1128ZM119.912 95.2359C120.659 95.593 121.555 95.2766 121.912 94.5292C122.269 93.7817 121.953 92.8862 121.205 92.529L119.912 95.2359ZM115.976 90.0605C115.226 89.7105 114.333 90.0354 113.983 90.7862C113.633 91.537 113.958 92.4295 114.709 92.7795L115.976 90.0605ZM109.359 90.3186C110.113 90.6608 111.002 90.3267 111.344 89.5722C111.686 88.8178 111.352 87.9287 110.598 87.5865L109.359 90.3186ZM105.321 85.2279C104.563 84.894 103.678 85.238 103.344 85.9962C103.01 86.7544 103.354 87.6396 104.112 87.9735L105.321 85.2279ZM98.7044 85.6311C99.4666 85.9556 100.348 85.6008 100.672 84.8385C100.997 84.0763 100.642 83.1954 99.8796 82.8708L98.7044 85.6311ZM94.5468 80.6408C93.7804 80.3263 92.9041 80.6926 92.5896 81.459C92.2751 82.2254 92.6414 83.1017 93.4078 83.4162L94.5468 80.6408ZM87.9492 81.222C88.7201 81.5253 89.5909 81.1461 89.8942 80.3752C90.1974 79.6042 89.8182 78.7334 89.0473 78.4302L87.9492 81.222ZM83.5911 76.3337C82.8154 76.0428 81.9508 76.4359 81.66 77.2116C81.3691 77.9873 81.7622 78.8519 82.5379 79.1427L83.5911 76.3337ZM77.1093 77.1611C77.89 77.4381 78.7475 77.0298 79.0245 76.249C79.3015 75.4683 78.8932 74.6108 78.1124 74.3338L77.1093 77.1611ZM72.5168 72.4106C71.7307 72.1495 70.8816 72.5751 70.6204 73.3612C70.3592 74.1474 70.7848 74.9965 71.571 75.2576L72.5168 72.4106ZM66.0577 73.4936C66.8496 73.7369 67.6888 73.2922 67.9321 72.5003C68.1754 71.7084 67.7307 70.8692 66.9388 70.6259L66.0577 73.4936ZM61.3511 68.9857C60.5532 68.7628 59.7258 69.229 59.5029 70.0269C59.2801 70.8248 59.7462 71.6523 60.5441 71.8751L61.3511 68.9857ZM54.9179 70.3928C55.7222 70.5914 56.5352 70.1004 56.7338 69.2961C56.9324 68.4918 56.4414 67.6788 55.6372 67.4802L54.9179 70.3928ZM49.8748 66.1627C49.064 65.9929 48.269 66.5125 48.0992 67.3234C47.9293 68.1342 48.449 68.9292 49.2598 69.099L49.8748 66.1627ZM43.582 68.0318C44.3994 68.1669 45.1714 67.6137 45.3065 66.7964C45.4415 65.9791 44.8884 65.207 44.0711 65.0719L43.582 68.0318ZM38.2177 64.256C37.3944 64.164 36.6523 64.7567 36.5603 65.58C36.4682 66.4033 37.061 67.1454 37.8843 67.2374L38.2177 64.256ZM32.1855 66.7819C33.0131 66.8195 33.7144 66.1791 33.752 65.3515C33.7896 64.5239 33.1491 63.8226 32.3216 63.785L32.1855 66.7819ZM26.3615 63.7604C25.5338 63.7944 24.8904 64.4931 24.9245 65.3208C24.9585 66.1485 25.6572 66.7919 26.4849 66.7578L26.3615 63.7604ZM20.833 67.308C21.6509 67.1762 22.2071 66.4064 22.0754 65.5885C21.9437 64.7707 21.1739 64.2144 20.356 64.3461L20.833 67.308ZM14.4551 65.7814C13.6707 66.0479 13.2508 66.8997 13.5172 67.6842C13.7836 68.4686 14.6355 68.8885 15.4199 68.6221L14.4551 65.7814ZM10.4883 70.9514C11.1853 70.5037 11.3875 69.5758 10.9399 68.8787C10.4922 68.1816 9.56423 67.9795 8.86717 68.4271L10.4883 70.9514ZM4.17665 72.6279C3.66271 73.2777 3.77281 74.221 4.42254 74.735C5.07229 75.2489 6.01563 75.1388 6.52957 74.4891L4.17665 72.6279ZM4.07497 79.14C4.32369 78.3498 3.88471 77.5076 3.09449 77.2589C2.30428 77.0102 1.46207 77.4492 1.21336 78.2394L4.07497 79.14ZM0.321181 84.4601C0.328364 85.2885 1.00573 85.9543 1.83413 85.9471C2.66252 85.9399 3.32825 85.2625 3.32106 84.4341L0.321181 84.4601ZM4.06471 89.8401C3.85594 89.0384 3.03679 88.5578 2.2351 88.7666C1.43341 88.9754 0.952766 89.7945 1.16155 90.5962L4.06471 89.8401ZM3.64818 96.471C4.121 97.1512 5.05574 97.3194 5.73598 96.8466C6.41623 96.3737 6.58437 95.439 6.11156 94.7587L3.64818 96.471ZM9.98716 98.3419C9.28242 97.9065 8.3581 98.1248 7.92263 98.8295C7.48717 99.5343 7.70547 100.459 8.41022 100.894L9.98716 98.3419ZM14.2578 103.356C15.0589 103.567 15.8792 103.088 16.09 102.287C16.3008 101.486 15.8221 100.666 15.021 100.455L14.2578 103.356ZM20.5325 101.213C19.7043 101.194 19.0171 101.85 18.9977 102.678C18.9782 103.506 19.6339 104.193 20.4621 104.213L20.5325 101.213ZM26.6697 103.707C27.4842 103.555 28.0218 102.772 27.8705 101.958C27.7191 101.143 26.9362 100.606 26.1217 100.757L26.6697 103.707ZM31.5175 99.1858C30.7489 99.495 30.3766 100.369 30.6858 101.137C30.995 101.906 31.8687 102.278 32.6373 101.969L31.5175 99.1858ZM38.1444 99.0927C38.8374 98.6387 39.0311 97.7089 38.5771 97.016C38.1232 96.323 37.1934 96.1293 36.5004 96.5833L38.1444 99.0927ZM40.8869 93.0511C40.2951 93.6307 40.2851 94.5804 40.8647 95.1723C41.4443 95.7641 42.394 95.7741 42.9859 95.1945L40.8869 93.0511ZM46.9811 90.473C47.4562 89.7944 47.2912 88.8591 46.6125 88.384C45.9339 87.9089 44.9986 88.0739 44.5235 88.7525L46.9811 90.473ZM47.36 83.8528C47.0055 84.6016 47.3251 85.496 48.0738 85.8505C48.8226 86.205 49.7169 85.8854 50.0714 85.1366L47.36 83.8528ZM52.2713 79.4095C52.512 78.6169 52.0645 77.7791 51.2718 77.5384C50.4792 77.2977 49.6414 77.7451 49.4007 78.5378L52.2713 79.4095ZM50.7133 72.9283C50.5743 73.745 51.1237 74.5197 51.9404 74.6587C52.7571 74.7977 53.5318 74.2483 53.6708 73.4317L50.7133 72.9283ZM54.3628 67.4096C54.4151 66.5828 53.7872 65.8702 52.9605 65.8179C52.1337 65.7656 51.4211 66.3934 51.3687 67.2201L54.3628 67.4096ZM51.4702 61.4435C51.4913 62.2717 52.1798 62.9259 53.0079 62.9048C53.8361 62.8837 54.4903 62.1953 54.4692 61.3671L51.4702 61.4435ZM54.0833 55.3446C54.0002 54.5204 53.2647 53.9195 52.4404 54.0027C51.6162 54.0857 51.0153 54.8213 51.0984 55.6455L54.0833 55.3446ZM50.3222 49.8566C50.4578 50.6739 51.2302 51.2265 52.0475 51.0909C52.8648 50.9553 53.4174 50.1829 53.2818 49.3656L50.3222 49.8566ZM52.1269 43.4429C51.9466 42.6344 51.145 42.125 50.3364 42.3053C49.5279 42.4856 49.0185 43.2873 49.1988 44.0958L52.1269 43.4429ZM47.7993 38.4616C48.0175 39.2608 48.8422 39.7318 49.6414 39.5137C50.4406 39.2956 50.9116 38.4709 50.6935 37.6717L47.7993 38.4616ZM49.0034 31.9572C48.7524 31.1677 47.909 30.7311 47.1195 30.9821C46.33 31.233 45.8934 32.0765 46.1444 32.866L49.0034 31.9572ZM44.2548 27.2863C44.5346 28.0661 45.3935 28.4714 46.1733 28.1915C46.953 27.9117 47.3583 27.0528 47.0785 26.2731L44.2548 27.2863ZM44.9568 20.6566C44.6517 19.8864 43.78 19.5094 43.0098 19.8146C42.2396 20.1197 41.8626 20.9914 42.1678 21.7616L44.9568 20.6566ZM39.9443 16.3818C40.2716 17.1429 41.1538 17.4945 41.9149 17.1673C42.6759 16.8401 43.0276 15.9578 42.7004 15.1968L39.9443 16.3818ZM40.2518 9.70677C39.9045 8.95464 39.0132 8.62643 38.2611 8.9737C37.509 9.32095 37.1808 10.2122 37.528 10.9643L40.2518 9.70677ZM35.0098 5.67808C35.3748 6.42179 36.2735 6.72881 37.0172 6.36383C37.7609 5.99886 38.0679 5.10011 37.7029 4.35641L35.0098 5.67808ZM272.79 109.72C272.406 108.27 272.406 108.27 272.406 108.27C272.406 108.27 272.406 108.27 272.406 108.27C272.406 108.27 272.406 108.27 272.406 108.27C272.406 108.27 272.406 108.27 272.406 108.27C272.405 108.27 272.405 108.271 272.404 108.271C272.402 108.271 272.399 108.272 272.396 108.273C272.388 108.275 272.376 108.278 272.361 108.282C272.329 108.29 272.282 108.303 272.218 108.319C272.091 108.352 271.9 108.401 271.649 108.465C271.146 108.592 270.4 108.777 269.434 109.008L270.13 111.926C271.11 111.692 271.868 111.504 272.383 111.374C272.641 111.308 272.837 111.258 272.97 111.224C273.036 111.206 273.087 111.193 273.121 111.184C273.138 111.18 273.151 111.176 273.16 111.174C273.165 111.173 273.168 111.172 273.171 111.171C273.172 111.171 273.173 111.171 273.174 111.17C273.174 111.17 273.174 111.17 273.174 111.17C273.174 111.17 273.175 111.17 273.175 111.17C273.175 111.17 273.175 111.17 273.175 111.17C273.175 111.17 273.175 111.17 272.79 109.72ZM263.33 110.386C261.51 110.776 259.452 111.2 257.189 111.639L257.76 114.584C260.044 114.141 262.121 113.713 263.959 113.319L263.33 110.386ZM251.027 112.777C249.058 113.122 246.985 113.467 244.824 113.805L245.287 116.769C247.467 116.428 249.558 116.08 251.545 115.732L251.027 112.777ZM238.649 114.711C236.629 114.988 234.553 115.253 232.429 115.502L232.778 118.482C234.922 118.231 237.018 117.963 239.056 117.683L238.649 114.711ZM226.203 116.166C224.157 116.362 222.078 116.54 219.973 116.695L220.193 119.687C222.321 119.53 224.422 119.351 226.489 119.152L226.203 116.166ZM213.729 117.08C211.659 117.182 209.573 117.259 207.478 117.308L207.547 120.307C209.67 120.258 211.782 120.18 213.877 120.076L213.729 117.08ZM201.232 117.362C199.152 117.35 197.07 117.306 194.992 117.226L194.877 120.224C196.989 120.305 199.104 120.35 201.214 120.362L201.232 117.362ZM188.765 116.878C186.685 116.723 184.616 116.528 182.565 116.291L182.22 119.271C184.314 119.513 186.423 119.711 188.542 119.869L188.765 116.878ZM176.407 115.434C174.343 115.096 172.306 114.71 170.303 114.27L169.659 117.2C171.719 117.652 173.809 118.049 175.922 118.395L176.407 115.434ZM164.296 112.755C162.292 112.181 160.334 111.545 158.43 110.844L157.393 113.659C159.371 114.387 161.4 115.046 163.469 115.639L164.296 112.755ZM152.74 108.47C151.81 108.033 150.897 107.576 150.001 107.1L148.593 109.749C149.533 110.248 150.49 110.727 151.463 111.185L152.74 108.47ZM150.001 107.1C149.114 106.628 148.231 106.16 147.353 105.698L145.954 108.351C146.829 108.812 147.708 109.278 148.593 109.749L150.001 107.1ZM142.145 102.974C140.414 102.077 138.703 101.197 137.011 100.336L135.649 103.009C137.335 103.867 139.04 104.744 140.765 105.638L142.145 102.974ZM131.715 97.6654C129.972 96.795 128.25 95.9443 126.55 95.1128L125.232 97.8079C126.924 98.6356 128.639 99.4827 130.375 100.35L131.715 97.6654ZM121.205 92.529C119.438 91.6847 117.695 90.862 115.976 90.0605L114.709 92.7795C116.419 93.5769 118.153 94.3955 119.912 95.2359L121.205 92.529ZM110.598 87.5865C108.812 86.7766 107.053 85.9906 105.321 85.2279L104.112 87.9735C105.834 88.7316 107.583 89.5132 109.359 90.3186L110.598 87.5865ZM99.8796 82.8708C98.0715 82.1011 96.2941 81.3579 94.5468 80.6408L93.4078 83.4162C95.1427 84.1282 96.9081 84.8663 98.7044 85.6311L99.8796 82.8708ZM89.0473 78.4302C87.1928 77.7008 85.3743 77.0022 83.5911 76.3337L82.5379 79.1427C84.3056 79.8055 86.1092 80.4983 87.9492 81.222L89.0473 78.4302ZM78.1124 74.3338C76.2043 73.6568 74.3394 73.0161 72.5168 72.4106L71.571 75.2576C73.3738 75.8565 75.2196 76.4907 77.1093 77.1611L78.1124 74.3338ZM66.9388 70.6259C65.0263 70.0383 63.1641 69.4921 61.3511 68.9857L60.5441 71.8751C62.3313 72.3743 64.1688 72.9133 66.0577 73.4936L66.9388 70.6259ZM55.6372 67.4802C53.6523 66.9901 51.7321 66.5517 49.8748 66.1627L49.2598 69.099C51.0806 69.4803 52.966 69.9108 54.9179 70.3928L55.6372 67.4802ZM44.0711 65.0719C42.0363 64.7357 40.0861 64.465 38.2177 64.256L37.8843 67.2374C39.6975 67.4402 41.5957 67.7036 43.582 68.0318L44.0711 65.0719ZM32.3216 63.785C30.2161 63.6894 28.231 63.6834 26.3615 63.7604L26.4849 66.7578C28.2611 66.6847 30.1593 66.6899 32.1855 66.7819L32.3216 63.785ZM20.356 64.3461C18.1997 64.6934 16.2361 65.1766 14.4551 65.7814L15.4199 68.6221C17.0261 68.0766 18.825 67.6314 20.833 67.308L20.356 64.3461ZM8.86717 68.4271C6.97145 69.6445 5.41633 71.0607 4.17665 72.6279L6.52957 74.4891C7.55424 73.1936 8.85843 71.9981 10.4883 70.9514L8.86717 68.4271ZM1.21336 78.2394C0.578544 80.2564 0.302942 82.3563 0.321181 84.4601L3.32106 84.4341C3.30524 82.6084 3.54476 80.8247 4.07497 79.14L1.21336 78.2394ZM1.16155 90.5962C1.42025 91.5895 1.73411 92.5702 2.09679 93.5302L4.90321 92.47C4.57688 91.6062 4.29569 90.7271 4.06471 89.8401L1.16155 90.5962ZM2.09679 93.5302C2.49345 94.5802 3.01651 95.5622 3.64818 96.471L6.11156 94.7587C5.61565 94.0453 5.20973 93.2814 4.90321 92.47L2.09679 93.5302ZM8.41022 100.894C10.156 101.973 12.135 102.798 14.2578 103.356L15.021 100.455C13.1544 99.9639 11.4546 99.2487 9.98716 98.3419L8.41022 100.894ZM20.4621 104.213C22.4867 104.26 24.5733 104.096 26.6697 103.707L26.1217 100.757C24.2274 101.109 22.348 101.256 20.5325 101.213L20.4621 104.213ZM32.6373 101.969C34.5172 101.213 36.3662 100.258 38.1444 99.0927L36.5004 96.5833C34.8911 97.6376 33.2182 98.5015 31.5175 99.1858L32.6373 101.969ZM42.9859 95.1945C44.4144 93.7956 45.7552 92.2241 46.9811 90.473L44.5235 88.7525C43.4037 90.352 42.183 91.7819 40.8869 93.0511L42.9859 95.1945ZM50.0714 85.1366C50.9122 83.361 51.6507 81.4532 52.2713 79.4095L49.4007 78.5378C48.8216 80.4448 48.1357 82.2145 47.36 83.8528L50.0714 85.1366ZM53.6708 73.4317C53.996 71.5211 54.2295 69.5145 54.3628 67.4096L51.3687 67.2201C51.2419 69.2244 51.0201 71.1261 50.7133 72.9283L53.6708 73.4317ZM54.4692 61.3671C54.4199 59.4323 54.2931 57.4253 54.0833 55.3446L51.0984 55.6455C51.301 57.6548 51.4229 59.5868 51.4702 61.4435L54.4692 61.3671ZM53.2818 49.3656C52.9636 47.4481 52.5799 45.4742 52.1269 43.4429L49.1988 44.0958C49.6403 46.0755 50.0135 47.9954 50.3222 49.8566L53.2818 49.3656ZM50.6935 37.6717C50.1857 35.8114 49.6232 33.9068 49.0034 31.9572L46.1444 32.866C46.752 34.7776 47.3028 36.6425 47.7993 38.4616L50.6935 37.6717ZM47.0785 26.2731C46.4201 24.4383 45.7135 22.5663 44.9568 20.6566L42.1678 21.7616C42.9127 23.6419 43.6078 25.4833 44.2548 27.2863L47.0785 26.2731ZM42.7004 15.1968C41.9271 13.3985 41.1114 11.5686 40.2518 9.70677L37.528 10.9643C38.3769 12.8028 39.1818 14.6085 39.9443 16.3818L42.7004 15.1968ZM37.7029 4.35641C37.2583 3.45035 36.8036 2.5371 36.3388 1.61662L33.6609 2.96891C34.1206 3.87935 34.5702 4.7824 35.0098 5.67808L37.7029 4.35641Z" fill="#606060"/>
</svg>
