<svg width="198" height="187" viewBox="0 0 198 187" fill="none" xmlns="http://www.w3.org/2000/svg">
<path opacity="0.48" d="M2.14044 0.506589C1.31566 0.429024 0.584154 1.03477 0.506589 1.85956C0.429024 2.68434 1.03477 3.41585 1.85956 3.49341L2.14044 0.506589ZM117.433 45.9026L116.315 46.902L117.433 45.9026ZM187.068 186.175C187.717 186.69 188.66 186.581 189.175 185.932L197.566 175.357C198.081 174.708 197.972 173.764 197.323 173.249C196.674 172.734 195.731 172.843 195.216 173.492L187.757 182.893L178.357 175.434C177.708 174.919 176.764 175.028 176.249 175.677C175.734 176.326 175.843 177.269 176.492 177.784L187.068 186.175ZM4.90359 3.82908C5.7262 3.92709 6.47251 3.33968 6.57052 2.51707C6.66853 1.69446 6.08112 0.948153 5.25851 0.850146L4.90359 3.82908ZM11.5315 1.6755C10.7114 1.55841 9.95162 2.12833 9.83453 2.94844C9.71744 3.76855 10.2874 4.5283 11.1075 4.64539L11.5315 1.6755ZM17.3035 5.5921C18.1212 5.72502 18.8918 5.1699 19.0247 4.35221C19.1576 3.53451 18.6025 2.76389 17.7848 2.63097L17.3035 5.5921ZM24.0139 3.70254C23.1988 3.55462 22.4181 4.09549 22.2702 4.9106C22.1222 5.72572 22.6631 6.50641 23.4782 6.65433L24.0139 3.70254ZM29.6548 7.83391C30.4671 7.99682 31.2576 7.47042 31.4205 6.65817C31.5834 5.84592 31.057 5.0554 30.2447 4.89249L29.6548 7.83391ZM36.4075 6.1884C35.5985 6.01028 34.7982 6.52176 34.6201 7.33081C34.442 8.13986 34.9535 8.94012 35.7625 9.11824L36.4075 6.1884ZM41.8723 10.526C42.6777 10.72 43.4879 10.2244 43.6819 9.41898C43.8759 8.61359 43.3803 7.80341 42.5749 7.60941L41.8723 10.526ZM48.7073 9.15366C47.9061 8.94292 47.0858 9.42156 46.8751 10.2227C46.6643 11.0239 47.143 11.8442 47.9441 12.055L48.7073 9.15366ZM53.9724 13.7117C54.7687 13.9402 55.5994 13.48 55.828 12.6837C56.0565 11.8874 55.5962 11.0566 54.8 10.8281L53.9724 13.7117ZM60.862 12.6462C60.0714 12.3985 59.2298 12.8386 58.9821 13.6291C58.7345 14.4197 59.1746 15.2613 59.9651 15.509L60.862 12.6462ZM65.9091 17.4561C66.6928 17.7245 67.5458 17.3067 67.8141 16.5229C68.0825 15.7392 67.6648 14.8863 66.881 14.6179L65.9091 17.4561ZM72.8427 16.7548C72.067 16.4638 71.2024 16.8567 70.9114 17.6323C70.6204 18.408 71.0133 19.2727 71.7889 19.5637L72.8427 16.7548ZM77.5979 21.8485C78.3637 22.1643 79.2406 21.7995 79.5565 21.0336C79.8723 20.2678 79.5075 19.3909 78.7416 19.0751L77.5979 21.8485ZM84.5638 21.5978C83.8098 21.2545 82.9203 21.5873 82.577 22.3413C82.2337 23.0952 82.5665 23.9847 83.3205 24.328L84.5638 21.5978ZM88.9348 27.0217C89.674 27.3956 90.5764 27.0995 90.9503 26.3602C91.3242 25.621 91.0281 24.7186 90.2888 24.3447L88.9348 27.0217ZM95.8955 27.3435C95.1745 26.9354 94.2593 27.189 93.8512 27.9099C93.4431 28.6308 93.6967 29.5461 94.4176 29.9542L95.8955 27.3435ZM99.7424 33.1567C100.44 33.6032 101.368 33.3995 101.814 32.7017C102.261 32.0038 102.057 31.0762 101.359 30.6297L99.7424 33.1567ZM106.629 34.2336C105.96 33.7441 105.022 33.8891 104.532 34.5575C104.043 35.2258 104.188 36.1644 104.856 36.6539L106.629 34.2336ZM109.7 40.4756C110.33 41.013 111.277 40.9376 111.814 40.3071C112.352 39.6766 112.276 38.7299 111.646 38.1925L109.7 40.4756ZM116.355 42.5636C115.774 41.9735 114.824 41.9664 114.234 42.5479C113.644 43.1293 113.637 44.079 114.218 44.6691L116.355 42.5636ZM118.385 49.2473C118.929 49.8718 119.877 49.9366 120.501 49.3922C121.126 48.8478 121.191 47.9003 120.646 47.2758L118.385 49.2473ZM124.619 51.9485C124.091 51.3106 123.145 51.2218 122.507 51.7503C121.869 52.2788 121.78 53.2244 122.309 53.8624L124.619 51.9485ZM126.042 58.4943C126.553 59.1465 127.496 59.261 128.148 58.7502C128.8 58.2393 128.915 57.2965 128.404 56.6443L126.042 58.4943ZM132.144 61.5721C131.654 60.9044 130.715 60.7606 130.047 61.251C129.38 61.7414 129.236 62.6802 129.726 63.3479L132.144 61.5721ZM133.159 68.1879C133.627 68.8718 134.56 69.0471 135.244 68.5796C135.928 68.112 136.103 67.1786 135.636 66.4947L133.159 68.1879ZM139.03 71.6674C138.589 70.9659 137.663 70.7544 136.962 71.1951C136.26 71.6358 136.049 72.5617 136.489 73.2632L139.03 71.6674ZM139.557 78.3837C139.967 79.1036 140.883 79.3548 141.602 78.9449C142.322 78.535 142.574 77.619 142.164 76.8992L139.557 78.3837ZM145.062 82.288C144.688 81.5487 143.786 81.2526 143.047 81.6265C142.308 82.0004 142.011 82.9028 142.385 83.6421L145.062 82.288ZM144.953 89.0916C145.284 89.8511 146.168 90.1984 146.927 89.8675C147.687 89.5366 148.034 88.6526 147.703 87.8932L144.953 89.0916ZM149.963 93.5639C149.682 92.7845 148.822 92.3802 148.043 92.661C147.264 92.9417 146.859 93.8012 147.14 94.5806L149.963 93.5639ZM148.943 100.236C149.163 101.034 149.989 101.503 150.788 101.283C151.586 101.062 152.055 100.236 151.834 99.4376L148.943 100.236ZM153.228 105.517C153.081 104.702 152.3 104.161 151.485 104.308C150.67 104.456 150.129 105.236 150.276 106.051L153.228 105.517ZM151.031 111.91C151.092 112.736 151.812 113.356 152.638 113.294C153.464 113.233 154.084 112.513 154.022 111.687L151.031 111.91ZM154.116 117.92C154.155 117.093 153.516 116.39 152.688 116.351C151.861 116.312 151.158 116.951 151.119 117.779L154.116 117.92ZM150.449 123.584C150.297 124.399 150.833 125.182 151.647 125.335C152.461 125.488 153.245 124.951 153.398 124.137L150.449 123.584ZM151.779 130.206C152.054 129.424 151.643 128.568 150.861 128.293C150.08 128.018 149.223 128.429 148.949 129.211L151.779 130.206ZM146.588 134.52C146.191 135.247 146.459 136.158 147.186 136.555C147.914 136.952 148.825 136.684 149.222 135.957L146.588 134.52ZM145.764 141.22C146.274 140.566 146.157 139.624 145.504 139.114C144.851 138.605 143.908 138.721 143.399 139.374L145.764 141.22ZM139.465 143.664C138.859 144.229 138.826 145.178 139.391 145.784C139.956 146.39 140.905 146.423 141.511 145.858L139.465 143.664ZM136.608 149.787C137.291 149.318 137.464 148.384 136.994 147.701C136.525 147.019 135.591 146.846 134.908 147.315L136.608 149.787ZM129.863 150.289C129.123 150.66 128.823 151.562 129.195 152.302C129.566 153.043 130.467 153.342 131.208 152.971L129.863 150.289ZM125.445 155.407C126.227 155.133 126.639 154.278 126.366 153.496C126.092 152.714 125.237 152.301 124.455 152.575L125.445 155.407ZM118.793 154.173C117.984 154.35 117.47 155.149 117.647 155.958C117.823 156.768 118.623 157.281 119.432 157.104L118.793 154.173ZM113.263 158.07C114.088 157.99 114.692 157.257 114.612 156.433C114.533 155.608 113.8 155.004 112.975 155.084L113.263 158.07ZM107.093 155.301C106.265 155.282 105.578 155.938 105.559 156.766C105.54 157.594 106.196 158.281 107.025 158.3L107.093 155.301ZM100.8 157.775C101.62 157.896 102.382 157.329 102.503 156.51C102.624 155.69 102.058 154.928 101.238 154.807L100.8 157.775ZM95.499 153.573C94.7027 153.344 93.872 153.805 93.6438 154.601C93.4156 155.398 93.8761 156.228 94.6725 156.457L95.499 153.573ZM88.7711 154.297C89.5258 154.638 90.4146 154.303 90.7562 153.549C91.0978 152.794 90.7629 151.905 90.0082 151.564L88.7711 154.297ZM84.9177 148.751C84.2282 148.292 83.297 148.478 82.8377 149.168C82.3784 149.857 82.565 150.788 83.2544 151.248L84.9177 148.751ZM78.3206 147.287C78.9166 147.863 79.8662 147.846 80.4416 147.25C81.0169 146.654 81.0001 145.704 80.4041 145.129L78.3206 147.287ZM76.6565 140.746C76.1817 140.067 75.2465 139.901 74.5676 140.376C73.8887 140.851 73.7233 141.786 74.198 142.465L76.6565 140.746ZM71.0906 136.946C71.4256 137.704 72.3113 138.047 73.069 137.712C73.8267 137.377 74.1694 136.491 73.8345 135.733L71.0906 136.946ZM71.9999 130.262C71.8079 129.456 70.9989 128.959 70.1931 129.151C69.3872 129.343 68.8896 130.152 69.0816 130.958L71.9999 130.262ZM68.1327 124.741C68.193 125.567 68.9117 126.188 69.7379 126.127C70.5641 126.067 71.185 125.348 71.1247 124.522L68.1327 124.741ZM71.0913 118.572C71.1331 117.745 70.4962 117.04 69.6689 116.998C68.8415 116.956 68.1369 117.593 68.0951 118.421L71.0913 118.572ZM68.7383 112.328C68.6039 113.145 69.1576 113.917 69.9751 114.051C70.7925 114.185 71.5642 113.632 71.6986 112.814L68.7383 112.328ZM72.9967 107.208C73.2381 106.415 72.7915 105.577 71.999 105.335C71.2065 105.094 70.3684 105.541 70.1269 106.333L72.9967 107.208ZM72.3671 100.578C72.0067 101.324 72.3193 102.22 73.0652 102.581C73.8111 102.941 74.708 102.629 75.0684 101.883L72.3671 100.578ZM77.9735 96.9889C78.4578 96.3168 78.3056 95.3793 77.6335 94.895C76.9614 94.4107 76.0239 94.5629 75.5396 95.235L77.9735 96.9889ZM79.6467 90.5298C79.0455 91.0998 79.0201 92.0492 79.59 92.6504C80.1599 93.2516 81.1093 93.277 81.7106 92.7071L79.6467 90.5298ZM86.178 89.2144C86.8759 88.768 87.0797 87.8403 86.6333 87.1425C86.1869 86.4446 85.2593 86.2408 84.5614 86.6872L86.178 89.2144ZM90.094 83.8242C89.3272 84.1377 88.9596 85.0134 89.2731 85.7802C89.5866 86.5471 90.4623 86.9146 91.2291 86.6011L90.094 83.8242ZM96.6733 84.8939C97.4813 84.711 97.988 83.9076 97.805 83.0997C97.622 82.2917 96.8187 81.785 96.0107 81.968L96.6733 84.8939ZM102.13 81.0597C101.304 81.1217 100.684 81.8416 100.746 82.6677C100.808 83.4938 101.528 84.1133 102.354 84.0513L102.13 81.0597ZM108.133 84.0057C108.961 84.0524 109.669 83.4197 109.716 82.5926C109.762 81.7655 109.13 81.0571 108.302 81.0105L108.133 84.0057ZM114.394 81.7177C113.578 81.5754 112.801 82.1216 112.659 82.9377C112.517 83.7538 113.063 84.5308 113.879 84.6731L114.394 81.7177ZM119.533 85.9715C120.33 86.198 121.159 85.7356 121.386 84.9388C121.612 84.1419 121.15 83.3123 120.353 83.0858L119.533 85.9715ZM126.137 85.0345C125.365 84.7337 124.496 85.1156 124.195 85.8875C123.894 86.6594 124.276 87.529 125.048 87.8298L126.137 85.0345ZM130.386 90.1847C131.129 90.5512 132.028 90.2459 132.395 89.503C132.761 88.76 132.456 87.8606 131.713 87.4942L130.386 90.1847ZM137.058 90.4055C136.346 89.9807 135.425 90.2129 135.001 90.9241C134.576 91.6354 134.808 92.5563 135.519 92.9811L137.058 90.4055ZM140.429 96.1712C141.107 96.6479 142.042 96.4851 142.519 95.8076C142.996 95.1301 142.833 94.1944 142.155 93.7177L140.429 96.1712ZM146.997 97.3874C146.354 96.8644 145.409 96.9611 144.886 97.6035C144.363 98.2459 144.46 99.1907 145.102 99.7138L146.997 97.3874ZM149.531 103.573C150.138 104.138 151.087 104.104 151.651 103.498C152.216 102.891 152.182 101.942 151.575 101.378L149.531 103.573ZM155.889 105.656C155.319 105.055 154.37 105.029 153.768 105.599C153.167 106.169 153.141 107.118 153.711 107.719L155.889 105.656ZM157.613 112.094C158.146 112.728 159.092 112.81 159.726 112.277C160.36 111.744 160.443 110.798 159.91 110.164L157.613 112.094ZM163.66 114.894C163.164 114.231 162.224 114.096 161.56 114.592C160.897 115.088 160.762 116.028 161.258 116.691L163.66 114.894ZM164.651 121.495C165.111 122.184 166.042 122.37 166.731 121.91C167.42 121.45 167.606 120.519 167.147 119.83L164.651 121.495ZM170.375 124.954C169.951 124.242 169.031 124.008 168.319 124.431C167.607 124.855 167.373 125.775 167.796 126.487L170.375 124.954ZM170.69 131.642C171.077 132.374 171.985 132.653 172.717 132.266C173.449 131.878 173.729 130.97 173.341 130.238L170.69 131.642ZM176.025 135.611C175.673 134.862 174.779 134.54 174.029 134.893C173.28 135.246 172.958 136.14 173.311 136.889L176.025 135.611ZM175.701 142.279C176.02 143.044 176.899 143.405 177.663 143.086C178.428 142.768 178.789 141.889 178.47 141.125L175.701 142.279ZM180.683 146.775C180.397 145.997 179.535 145.598 178.758 145.883C177.98 146.169 177.581 147.03 177.866 147.808L180.683 146.775ZM179.775 153.359C180.028 154.148 180.873 154.582 181.662 154.329C182.45 154.076 182.884 153.231 182.631 152.442L179.775 153.359ZM184.359 158.211C184.137 157.413 183.31 156.946 182.511 157.168C181.713 157.39 181.246 158.217 181.469 159.015L184.359 158.211ZM182.954 164.775C183.146 165.581 183.955 166.078 184.761 165.887C185.567 165.695 186.064 164.886 185.873 164.08L182.954 164.775ZM187.151 169.915C186.988 169.103 186.198 168.577 185.385 168.74C184.573 168.903 184.047 169.693 184.21 170.505L187.151 169.915ZM185.277 176.351C185.412 177.168 186.184 177.721 187.002 177.586C187.819 177.452 188.372 176.68 188.237 175.862L185.277 176.351ZM189.116 181.794C189.008 180.972 188.254 180.394 187.433 180.502C186.612 180.61 186.033 181.364 186.142 182.185L189.116 181.794ZM2 2C1.85956 3.49341 1.85953 3.49341 1.8595 3.49341C1.8595 3.49341 1.85948 3.4934 1.85947 3.4934C1.85946 3.4934 1.85947 3.4934 1.85949 3.4934C1.85954 3.49341 1.85965 3.49342 1.85983 3.49344C1.86019 3.49347 1.86081 3.49353 1.8617 3.49361C1.86348 3.49378 1.86632 3.49405 1.87021 3.49442C1.878 3.49517 1.89002 3.49632 1.9062 3.49789C1.93857 3.50103 1.98763 3.50583 2.05299 3.51236C2.1837 3.52541 2.37958 3.54536 2.63748 3.5727C3.15328 3.62736 3.91707 3.71154 4.90359 3.82908L5.25851 0.850146C4.25847 0.730999 3.48175 0.645373 2.95366 0.589404C2.68961 0.561419 2.48771 0.540847 2.35112 0.527206C2.28283 0.520385 2.23086 0.515297 2.19562 0.511881C2.17799 0.510173 2.16455 0.508883 2.15534 0.508004C2.15073 0.507564 2.14719 0.507227 2.1447 0.506992C2.14346 0.506874 2.14248 0.506781 2.14177 0.506714C2.14142 0.506681 2.14113 0.506654 2.14091 0.506633C2.1408 0.506623 2.1407 0.506614 2.14063 0.506606C2.14059 0.506603 2.14054 0.506598 2.14052 0.506597C2.14048 0.506593 2.14044 0.506589 2 2ZM11.1075 4.64539C12.9499 4.90843 15.0275 5.22213 17.3035 5.5921L17.7848 2.63097C15.4886 2.25771 13.3918 1.9411 11.5315 1.6755L11.1075 4.64539ZM23.4782 6.65433C25.4458 7.01139 27.5101 7.40377 29.6548 7.83391L30.2447 4.89249C28.0811 4.45853 25.9986 4.06272 24.0139 3.70254L23.4782 6.65433ZM35.7625 9.11824C37.7529 9.55643 39.7931 10.0251 41.8723 10.526L42.5749 7.60941C40.4756 7.10372 38.4162 6.63061 36.4075 6.1884L35.7625 9.11824ZM47.9441 12.055C49.932 12.5779 51.9443 13.1297 53.9724 13.7117L54.8 10.8281C52.7494 10.2396 50.7156 9.68192 48.7073 9.15366L47.9441 12.055ZM59.9651 15.509C61.9424 16.1284 63.9263 16.7771 65.9091 17.4561L66.881 14.6179C64.872 13.9299 62.8631 13.2731 60.862 12.6462L59.9651 15.509ZM71.7889 19.5637C73.7365 20.2943 75.6753 21.0556 77.5979 21.8485L78.7416 19.0751C76.7876 18.2692 74.8187 17.4962 72.8427 16.7548L71.7889 19.5637ZM83.3205 24.328C85.2188 25.1925 87.0927 26.09 88.9348 27.0217L90.2888 24.3447C88.408 23.3934 86.4971 22.4782 84.5638 21.5978L83.3205 24.328ZM94.4176 29.9542C96.2375 30.9844 98.0152 32.0515 99.7424 33.1567L101.359 30.6297C99.5835 29.4935 97.7594 28.3985 95.8955 27.3435L94.4176 29.9542ZM104.856 36.6539C106.538 37.8856 108.155 39.1591 109.7 40.4756L111.646 38.1925C110.041 36.8249 108.366 35.5058 106.629 34.2336L104.856 36.6539ZM114.218 44.6691C114.94 45.4015 115.639 46.1458 116.315 46.902L118.552 44.9032C117.843 44.1094 117.11 43.3295 116.355 42.5636L114.218 44.6691ZM116.315 46.902C117.017 47.688 117.707 48.4698 118.385 49.2473L120.646 47.2758C119.96 46.489 119.262 45.6981 118.552 44.9032L116.315 46.902ZM122.309 53.8624C123.603 55.4241 124.847 56.9681 126.042 58.4943L128.404 56.6443C127.191 55.096 125.93 53.5308 124.619 51.9485L122.309 53.8624ZM129.726 63.3479C130.927 64.9829 132.071 66.5963 133.159 68.1879L135.636 66.4947C134.528 64.8743 133.364 63.2334 132.144 61.5721L129.726 63.3479ZM136.489 73.2632C137.579 74.9976 138.601 76.7044 139.557 78.3837L142.164 76.8992C141.185 75.181 140.141 73.4371 139.03 71.6674L136.489 73.2632ZM142.385 83.6421C143.323 85.495 144.177 87.3116 144.953 89.0916L147.703 87.8932C146.904 86.0585 146.025 84.1901 145.062 82.288L142.385 83.6421ZM147.14 94.5806C147.836 96.513 148.435 98.3981 148.943 100.236L151.834 99.4376C151.306 97.5231 150.684 95.5652 149.963 93.5639L147.14 94.5806ZM150.276 106.051C150.641 108.068 150.89 110.021 151.031 111.91L154.022 111.687C153.874 109.69 153.611 107.633 153.228 105.517L150.276 106.051ZM151.119 117.779C151.024 119.798 150.796 121.733 150.449 123.584L153.398 124.137C153.771 122.147 154.014 120.074 154.116 117.92L151.119 117.779ZM148.949 129.211C148.291 131.081 147.499 132.851 146.588 134.52L149.222 135.957C150.21 134.147 151.067 132.229 151.779 130.206L148.949 129.211ZM143.399 139.374C142.197 140.914 140.881 142.344 139.465 143.664L141.511 145.858C143.038 144.434 144.463 142.887 145.764 141.22L143.399 139.374ZM134.908 147.315C133.302 148.419 131.615 149.411 129.863 150.289L131.208 152.971C133.078 152.033 134.885 150.972 136.608 149.787L134.908 147.315ZM124.455 152.575C122.605 153.222 120.712 153.755 118.793 154.173L119.432 157.104C121.468 156.66 123.478 156.094 125.445 155.407L124.455 152.575ZM112.975 155.084C111.014 155.273 109.047 155.345 107.093 155.301L107.025 158.3C109.098 158.347 111.184 158.27 113.263 158.07L112.975 155.084ZM101.238 154.807C99.2831 154.519 97.3634 154.107 95.499 153.573L94.6725 156.457C96.6688 157.029 98.7186 157.468 100.8 157.775L101.238 154.807ZM90.0082 151.564C88.2231 150.756 86.5193 149.818 84.9177 148.751L83.2544 151.248C84.998 152.409 86.8451 153.425 88.7711 154.297L90.0082 151.564ZM80.4041 145.129C79.0259 143.798 77.7699 142.338 76.6565 140.746L74.198 142.465C75.4252 144.22 76.8077 145.827 78.3206 147.287L80.4041 145.129ZM73.8345 135.733C73.0802 134.027 72.4626 132.204 71.9999 130.262L69.0816 130.958C69.5859 133.074 70.2614 135.07 71.0906 136.946L73.8345 135.733ZM71.1247 124.522C71.0539 123.552 71.0176 122.557 71.0176 121.537H68.0176C68.0176 122.628 68.0564 123.696 68.1327 124.741L71.1247 124.522ZM71.0176 121.537C71.0176 120.528 71.0424 119.54 71.0913 118.572L68.0951 118.421C68.0436 119.44 68.0176 120.479 68.0176 121.537H71.0176ZM71.6986 112.814C72.0229 110.842 72.4587 108.973 72.9967 107.208L70.1269 106.333C69.5485 108.231 69.0832 110.23 68.7383 112.328L71.6986 112.814ZM75.0684 101.883C75.92 100.12 76.8926 98.4889 77.9735 96.9889L75.5396 95.235C74.3543 96.8799 73.2929 98.6615 72.3671 100.578L75.0684 101.883ZM81.7106 92.7071C83.0923 91.3973 84.5859 90.2328 86.178 89.2144L84.5614 86.6872C82.8117 87.8064 81.168 89.0877 79.6467 90.5298L81.7106 92.7071ZM91.2291 86.6011C92.9646 85.8917 94.7834 85.3219 96.6733 84.8939L96.0107 81.968C93.9657 82.4312 91.9884 83.0498 90.094 83.8242L91.2291 86.6011ZM102.354 84.0513C104.233 83.9103 106.163 83.8946 108.133 84.0057L108.302 81.0105C106.206 80.8922 104.145 80.9085 102.13 81.0597L102.354 84.0513ZM113.879 84.6731C115.742 84.998 117.629 85.4304 119.533 85.9715L120.353 83.0858C118.352 82.5171 116.363 82.0611 114.394 81.7177L113.879 84.6731ZM125.048 87.8298C126.823 88.5215 128.605 89.3062 130.386 90.1847L131.713 87.4942C129.856 86.5781 127.995 85.7583 126.137 85.0345L125.048 87.8298ZM135.519 92.9811C137.164 93.9632 138.802 95.0264 140.429 96.1712L142.155 93.7177C140.468 92.5305 138.767 91.4265 137.058 90.4055L135.519 92.9811ZM145.102 99.7138C146.595 100.929 148.072 102.215 149.531 103.573L151.575 101.378C150.069 99.9748 148.541 98.6448 146.997 97.3874L145.102 99.7138ZM153.711 107.719C155.033 109.115 156.335 110.573 157.613 112.094L159.91 110.164C158.593 108.598 157.252 107.095 155.889 105.656L153.711 107.719ZM161.258 116.691C162.414 118.237 163.546 119.837 164.651 121.495L167.147 119.83C166.012 118.128 164.848 116.483 163.66 114.894L161.258 116.691ZM167.796 126.487C168.788 128.155 169.753 129.873 170.69 131.642L173.341 130.238C172.381 128.426 171.392 126.665 170.375 124.954L167.796 126.487ZM173.311 136.889C174.136 138.641 174.934 140.438 175.701 142.279L178.47 141.125C177.685 139.242 176.87 137.404 176.025 135.611L173.311 136.889ZM177.866 147.808C178.531 149.619 179.168 151.469 179.775 153.359L182.631 152.442C182.011 150.513 181.361 148.624 180.683 146.775L177.866 147.808ZM181.469 159.015C181.993 160.898 182.489 162.818 182.954 164.775L185.873 164.08C185.398 162.087 184.893 160.131 184.359 158.211L181.469 159.015ZM184.21 170.505C184.594 172.421 184.95 174.369 185.277 176.351L188.237 175.862C187.905 173.847 187.542 171.865 187.151 169.915L184.21 170.505ZM186.142 182.185C186.271 183.173 186.394 184.168 186.51 185.172L189.49 184.828C189.373 183.809 189.248 182.798 189.116 181.794L186.142 182.185Z" fill="#606060"/>
</svg>
