<svg width="716" height="187" viewBox="0 0 716 187" fill="none" xmlns="http://www.w3.org/2000/svg">
<path opacity="0.48" d="M714.37 96.0104C715.173 95.8061 715.658 94.9896 715.454 94.1868L712.123 81.104C711.919 80.3012 711.103 79.816 710.3 80.0204C709.497 80.2247 709.012 81.0412 709.216 81.844L712.176 93.4732L700.547 96.4334C699.744 96.6378 699.259 97.4543 699.464 98.2571C699.668 99.0599 700.484 99.5451 701.287 99.3407L714.37 96.0104ZM393 52.7182L391.669 52.0261L393 52.7182ZM490 110.557L488.692 109.822L490 110.557ZM222.5 125.218L223.643 126.189L222.5 125.218ZM-43.8563 137.711C-42.9031 137.619 -41.9471 137.552 -40.9882 137.509L-41.1219 134.512C-42.131 134.557 -43.1383 134.628 -44.1437 134.724L-43.8563 137.711ZM-35.2257 137.532C-33.3172 137.628 -31.3966 137.81 -29.4632 138.07L-29.0632 135.097C-31.0737 134.826 -33.0774 134.636 -35.0744 134.535L-35.2257 137.532ZM-23.7321 139.055C-21.8588 139.444 -19.9738 139.898 -18.0766 140.411L-17.2941 137.515C-19.2436 136.988 -21.1862 136.52 -23.1221 136.118L-23.7321 139.055ZM-12.491 142.072C-10.6591 142.664 -8.81638 143.303 -6.96243 143.984L-5.92818 141.168C-7.81548 140.475 -9.69562 139.823 -11.5687 139.217L-12.491 142.072ZM-1.48339 146.099C0.318821 146.826 2.1311 147.586 3.95389 148.374L5.14431 145.62C3.30182 144.824 1.46673 144.054 -0.360966 143.317L-1.48339 146.099ZM9.31698 150.754C11.0891 151.559 12.8707 152.385 14.6623 153.227L15.9386 150.512C14.1375 149.666 12.3439 148.834 10.5578 148.023L9.31698 150.754ZM19.9983 155.765C21.7635 156.613 23.5377 157.472 25.3218 158.337L26.6311 155.638C24.8456 154.772 23.0674 153.911 21.2971 153.061L19.9983 155.765ZM30.6342 160.915C32.4024 161.773 34.1802 162.632 35.9672 163.49L37.2652 160.785C35.4833 159.93 33.7095 159.072 31.943 158.216L30.6342 160.915ZM41.3244 166.037C43.1062 166.876 44.8975 167.708 46.6983 168.531L47.9446 165.802C46.1557 164.985 44.3747 164.157 42.6015 163.323L41.3244 166.037ZM52.1154 170.958C53.9267 171.753 55.7477 172.534 57.5785 173.298L58.7332 170.529C56.921 169.773 55.1171 168.999 53.3211 168.211L52.1154 170.958ZM63.0895 175.527C64.9357 176.249 66.7921 176.951 68.6587 177.626L69.6798 174.805C67.8391 174.139 66.0069 173.447 64.1829 172.733L63.0895 175.527ZM74.2884 179.573C76.1756 180.194 78.0733 180.785 79.9817 181.344L80.8239 178.464C78.9493 177.916 77.0834 177.334 75.2259 176.723L74.2884 179.573ZM85.7385 182.914C87.6673 183.402 89.6069 183.852 91.5576 184.261L92.1731 181.324C90.2643 180.924 88.3644 180.483 86.4734 180.006L85.7385 182.914ZM97.4353 185.358C99.3983 185.679 101.372 185.956 103.357 186.183L103.699 183.202C101.763 182.981 99.8367 182.711 97.9194 182.398L97.4353 185.358ZM109.322 186.714C111.309 186.839 113.306 186.913 115.315 186.931L115.342 183.931C113.389 183.913 111.445 183.842 109.511 183.72L109.322 186.714ZM121.295 186.82C123.278 186.727 125.273 186.579 127.278 186.37L126.967 183.386C125.02 183.589 123.083 183.733 121.155 183.823L121.295 186.82ZM133.23 185.575C135.175 185.258 137.13 184.883 139.094 184.445L138.442 181.517C136.534 181.942 134.636 182.306 132.747 182.614L133.23 185.575ZM144.929 182.971C146.821 182.436 148.721 181.842 150.629 181.188L149.656 178.35C147.799 178.987 145.951 179.565 144.113 180.085L144.929 182.971ZM156.232 179.097C158.065 178.358 159.905 177.561 161.753 176.704L160.492 173.982C158.689 174.818 156.895 175.595 155.11 176.315L156.232 179.097ZM167.075 174.081C168.834 173.162 170.601 172.188 172.374 171.156L170.866 168.563C169.131 169.572 167.404 170.524 165.686 171.422L167.075 174.081ZM177.401 168.09C179.076 167.021 180.759 165.899 182.447 164.724L180.733 162.262C179.077 163.414 177.428 164.514 175.786 165.562L177.401 168.09ZM187.195 161.291C188.781 160.101 190.373 158.863 191.97 157.576L190.088 155.24C188.517 156.505 186.953 157.722 185.395 158.891L187.195 161.291ZM196.481 153.825C197.975 152.543 199.474 151.218 200.977 149.849L198.958 147.631C197.475 148.98 195.999 150.286 194.528 151.548L196.481 153.825ZM205.304 145.8C206.706 144.453 208.112 143.066 209.523 141.64L207.391 139.53C205.997 140.939 204.608 142.308 203.225 143.638L205.304 145.8ZM213.722 137.292C215.035 135.9 216.352 134.472 217.673 133.01L215.447 130.999C214.14 132.446 212.837 133.857 211.539 135.234L213.722 137.292ZM221.648 128.516C222.312 127.749 222.977 126.973 223.643 126.189L221.357 124.247C220.697 125.024 220.038 125.792 219.38 126.552L221.648 128.516ZM223.643 126.189C224.297 125.418 224.952 124.654 225.607 123.894L223.335 121.935C222.675 122.7 222.015 123.471 221.357 124.247L223.643 126.189ZM229.542 119.402C230.856 117.925 232.171 116.47 233.489 115.036L231.279 113.007C229.951 114.452 228.625 115.919 227.301 117.407L229.542 119.402ZM237.476 110.764C238.862 109.303 240.25 107.864 241.64 106.448L239.498 104.347C238.097 105.775 236.697 107.226 235.3 108.699L237.476 110.764ZM245.812 102.268C247.204 100.898 248.597 99.549 249.992 98.2226L247.924 96.049C246.517 97.3874 245.111 98.7479 243.707 100.131L245.812 102.268ZM254.376 94.1278C255.84 92.785 257.305 91.4662 258.771 90.1712L256.785 87.9228C255.305 89.2302 253.826 90.5614 252.348 91.9167L254.376 94.1278ZM263.17 86.3572C264.703 85.0539 266.235 83.7762 267.768 82.5238L265.87 80.2007C264.322 81.4657 262.774 82.756 261.227 84.0721L263.17 86.3572ZM272.381 78.8308C273.921 77.6233 275.46 76.441 276.999 75.2836L275.196 72.8859C273.641 74.0555 272.085 75.2502 270.529 76.4701L272.381 78.8308ZM281.824 71.7353C283.431 70.5795 285.038 69.4505 286.643 68.348L284.945 65.875C283.321 66.9898 281.697 68.1313 280.072 69.2996L281.824 71.7353ZM291.513 65.0817C293.189 63.9844 294.863 62.9155 296.535 61.8748L294.95 59.3278C293.258 60.3808 291.565 61.462 289.87 62.5719L291.513 65.0817ZM301.545 58.8362C303.259 57.8243 304.969 56.8415 306.677 55.8875L305.214 53.2685C303.485 54.2343 301.754 55.229 300.02 56.2531L301.545 58.8362ZM311.877 53.0658C313.613 52.1516 315.345 51.2668 317.073 50.4108L315.742 47.7225C313.991 48.5895 312.237 49.4857 310.479 50.4115L311.877 53.0658ZM322.452 47.8336C324.24 47.0055 326.024 46.208 327.802 45.4406L326.614 42.6861C324.811 43.4639 323.003 44.2722 321.191 45.1114L322.452 47.8336ZM333.266 43.1704C335.108 42.4346 336.944 41.7308 338.773 41.0586L337.738 38.2428C335.883 38.9246 334.021 39.6384 332.153 40.3845L333.266 43.1704ZM344.31 39.112C346.2 38.4777 348.082 37.877 349.955 37.309L349.085 34.438C347.183 35.0146 345.273 35.6243 343.356 36.2679L344.31 39.112ZM355.566 35.6981C357.497 35.1748 359.418 34.6862 361.328 34.2315L360.634 31.313C358.693 31.7749 356.742 32.2711 354.781 32.8026L355.566 35.6981ZM367.027 32.9687C368.985 32.5668 370.931 32.2005 372.864 31.8691L372.357 28.9122C370.392 29.2492 368.414 29.6215 366.423 30.0299L367.027 32.9687ZM378.64 30.9759C380.617 30.7036 382.579 30.4677 384.525 30.2673L384.218 27.2831C382.238 27.487 380.241 27.727 378.231 28.004L378.64 30.9759ZM390.348 29.7695C392.338 29.6342 394.311 29.5362 396.265 29.4745L396.17 26.476C394.18 26.5389 392.171 26.6387 390.144 26.7764L390.348 29.7695ZM402.097 29.3968C404.095 29.4071 406.071 29.4556 408.025 29.541L408.156 26.5439C406.164 26.4567 404.149 26.4073 402.113 26.3968L402.097 29.3968ZM413.851 29.9099C415.838 30.075 417.799 30.279 419.732 30.5202L420.104 27.5433C418.129 27.2969 416.128 27.0888 414.1 26.9202L413.851 29.9099ZM425.53 31.368C427.484 31.6965 429.407 32.0638 431.297 32.4684L431.925 29.5348C429.991 29.1209 428.025 28.7453 426.027 28.4095L425.53 31.368ZM437.021 33.832C438.922 34.3322 440.787 34.8712 442.612 35.4471L443.515 32.586C441.642 31.9955 439.732 31.4431 437.784 30.9307L437.021 33.832ZM448.194 37.3663C450.05 38.0588 451.859 38.791 453.621 39.5603L454.822 36.811C453.009 36.0195 451.149 35.267 449.243 34.5557L448.194 37.3663ZM458.879 42.0377C460.657 42.9398 462.378 43.8818 464.04 44.861L465.563 42.2764C463.846 41.2645 462.07 40.2923 460.237 39.3623L458.879 42.0377ZM468.969 47.9924C470.595 49.1057 472.151 50.2571 473.636 51.4435L475.509 49.0998C473.965 47.8661 472.349 46.6708 470.664 45.5171L468.969 47.9924ZM478.025 55.2483C479.465 56.6053 480.818 57.9989 482.08 59.4248L484.327 57.4363C483.002 55.9402 481.586 54.4817 480.082 53.0647L478.025 55.2483ZM485.699 63.9441C486.843 65.5323 487.879 67.1522 488.804 68.7988L491.419 67.329C490.437 65.5812 489.34 63.867 488.134 62.1913L485.699 63.9441ZM491.307 73.9653C492.037 75.7531 492.641 77.5654 493.114 79.3967L496.019 78.647C495.511 76.6806 494.864 74.7397 494.084 72.8302L491.307 73.9653ZM494.143 85.0185C494.348 86.9091 494.414 88.8154 494.336 90.7321L497.334 90.8539C497.418 88.7872 497.346 86.7319 497.125 84.6946L494.143 85.0185ZM493.685 96.4043C493.337 98.2398 492.855 100.082 492.232 101.926L495.074 102.886C495.74 100.913 496.259 98.9366 496.633 96.9625L493.685 96.4043ZM490.055 107.219C489.633 108.087 489.179 108.955 488.692 109.822L491.308 111.292C491.824 110.374 492.305 109.453 492.754 108.53L490.055 107.219ZM488.692 109.822C488.206 110.688 487.685 111.526 487.132 112.338L489.61 114.028C490.212 113.145 490.779 112.233 491.308 111.292L488.692 109.822ZM483.405 116.917C482.042 118.333 480.561 119.645 478.976 120.854L480.794 123.24C482.496 121.943 484.093 120.529 485.567 118.997L483.405 116.917ZM474 124.121C472.284 125.09 470.485 125.961 468.616 126.736L469.765 129.507C471.74 128.689 473.648 127.765 475.475 126.734L474 124.121ZM462.948 128.729C461.045 129.287 459.092 129.757 457.101 130.137L457.665 133.084C459.747 132.686 461.794 132.194 463.792 131.607L462.948 128.729ZM451.133 131.003C449.142 131.203 447.128 131.32 445.103 131.354L445.153 134.353C447.26 134.318 449.358 134.196 451.434 133.988L451.133 131.003ZM439.058 131.21C437.049 131.082 435.04 130.873 433.044 130.584L432.615 133.553C434.69 133.853 436.778 134.07 438.867 134.204L439.058 131.21ZM427.102 129.48C425.131 129.031 423.184 128.502 421.273 127.893L420.363 130.752C422.356 131.386 424.384 131.937 426.435 132.405L427.102 129.48ZM415.609 125.813C413.743 125.031 411.927 124.168 410.172 123.225L408.752 125.868C410.595 126.858 412.498 127.762 414.449 128.58L415.609 125.813ZM405.037 120.114C403.375 118.98 401.789 117.764 400.294 116.465L398.327 118.731C399.915 120.109 401.593 121.396 403.347 122.592L405.037 120.114ZM396.041 112.275C394.719 110.79 393.501 109.221 392.401 107.569L389.905 109.233C391.085 111.005 392.389 112.684 393.801 114.27L396.041 112.275ZM389.482 102.402C388.649 100.633 387.939 98.7838 387.364 96.8557L384.489 97.7134C385.108 99.7867 385.872 101.776 386.768 103.679L389.482 102.402ZM386.085 91.0409C385.807 89.1315 385.652 87.1532 385.63 85.106L382.631 85.1375C382.654 87.316 382.818 89.4283 383.116 91.4732L386.085 91.0409ZM385.933 79.138C386.145 77.2158 386.467 75.2391 386.909 73.208L383.978 72.5702C383.514 74.6999 383.174 76.7802 382.951 78.8106L385.933 79.138ZM388.468 67.3665C389.048 65.5216 389.723 63.6362 390.497 61.7104L387.714 60.5916C386.912 62.5861 386.211 64.5443 385.606 66.4659L388.468 67.3665ZM392.935 56.1967C393.378 55.2763 393.843 54.3475 394.331 53.4102L391.669 52.0261C391.168 52.9901 390.689 53.9464 390.232 54.8951L392.935 56.1967ZM394.331 53.4102C394.804 52.4998 395.286 51.604 395.775 50.7226L393.152 49.2665C392.649 50.1719 392.155 51.0918 391.669 52.0261L394.331 53.4102ZM398.804 45.6062C399.868 43.9195 400.964 42.2917 402.09 40.7216L399.653 38.9728C398.491 40.592 397.362 42.2692 396.266 44.0053L398.804 45.6062ZM405.707 36.0024C406.966 34.4652 408.258 32.9907 409.581 31.5772L407.391 29.5267C406.022 30.9892 404.687 32.5137 403.386 34.1017L405.707 36.0024ZM413.779 27.3934C415.231 26.0446 416.716 24.7604 418.233 23.539L416.351 21.2023C414.779 22.4682 413.24 23.7988 411.737 25.1958L413.779 27.3934ZM422.965 20.0005C424.588 18.8754 426.244 17.8142 427.931 16.8151L426.402 14.2339C424.654 15.269 422.939 16.3687 421.256 17.5349L422.965 20.0005ZM433.117 13.9846C434.876 13.1025 436.665 12.2812 438.483 11.5188L437.323 8.75229C435.444 9.54033 433.593 10.3898 431.772 11.3028L433.117 13.9846ZM444.02 9.40627C445.874 8.76637 447.755 8.18225 449.66 7.6521L448.856 4.76189C446.894 5.30794 444.955 5.91011 443.042 6.57044L444.02 9.40627ZM455.438 6.22433C457.351 5.8089 459.287 5.44349 461.244 5.12641L460.764 2.16504C458.756 2.49036 456.768 2.86559 454.802 3.29265L455.438 6.22433ZM467.154 4.32086C469.102 4.10378 471.069 3.93111 473.054 3.80124L472.858 0.807644C470.829 0.940388 468.817 1.11701 466.821 1.33931L467.154 4.32086ZM479.023 3.53927C480.987 3.49419 482.966 3.48821 484.959 3.51984L485.006 0.520221C482.976 0.48799 480.958 0.494057 478.954 0.540055L479.023 3.53927ZM490.941 3.72427C492.906 3.8265 494.884 3.96299 496.871 4.13238L497.126 1.14322C495.107 0.971115 493.096 0.832317 491.097 0.728319L490.941 3.72427ZM502.838 4.73475C504.796 4.96258 506.763 5.22038 508.737 5.50688L509.168 2.53798C507.167 2.24755 505.172 1.98605 503.184 1.75485L502.838 4.73475ZM514.671 6.44922C516.616 6.78432 518.568 7.14564 520.524 7.53195L521.105 4.58878C519.126 4.19789 517.15 3.83213 515.18 3.49276L514.671 6.44922ZM526.408 8.76462C528.34 9.19231 530.276 9.64296 532.214 10.1154L532.924 7.2007C530.966 6.7234 529.009 6.26793 527.056 5.83552L526.408 8.76462ZM538.031 11.5954C539.952 12.1042 541.875 12.6333 543.798 13.1813L544.62 10.2961C542.679 9.74316 540.739 9.20921 538.8 8.69542L538.031 11.5954ZM549.549 14.8755C551.457 15.4554 553.364 16.0529 555.269 16.6668L556.189 13.8113C554.268 13.1924 552.345 12.59 550.422 12.0052L549.549 14.8755ZM560.959 18.5489C562.851 19.191 564.741 19.8483 566.627 20.5197L567.633 17.6933C565.733 17.0171 563.829 16.355 561.923 15.7081L560.959 18.5489ZM572.261 22.569C574.135 23.2654 576.006 23.9748 577.871 24.696L578.953 21.8979C577.076 21.1721 575.193 20.458 573.306 19.7568L572.261 22.569ZM583.456 26.8962C585.312 27.6408 587.162 28.396 589.005 29.1609L590.155 26.3901C588.301 25.6207 586.44 24.861 584.573 24.1119L583.456 26.8962ZM594.545 31.4972C596.385 32.2858 598.218 33.083 600.042 33.8878L601.253 31.1431C599.42 30.3341 597.577 29.5326 595.726 28.7396L594.545 31.4972ZM605.529 36.3435C607.357 37.1729 609.175 38.0088 610.981 38.8502L612.248 36.1306C610.433 35.2852 608.606 34.4451 606.769 33.6116L605.529 36.3435ZM616.412 41.4111C618.23 42.2787 620.034 43.1507 621.826 44.0258L623.143 41.3303C621.344 40.4513 619.53 39.5753 617.704 38.7037L616.412 41.4111ZM627.198 46.6799C629.007 47.5835 630.801 48.4891 632.578 49.3955L633.941 46.7231C632.156 45.813 630.355 44.9035 628.538 43.996L627.198 46.6799ZM637.892 52.1336C639.694 53.0712 641.477 54.0081 643.24 54.9428L644.646 52.2924C642.876 51.3541 641.086 50.4135 639.277 49.4722L637.892 52.1336ZM648.504 57.7595C650.299 58.7286 652.07 59.6937 653.816 60.6533L655.261 58.0239C653.508 57.061 651.73 56.0924 649.929 55.1197L648.504 57.7595ZM659.042 63.5476C660.827 64.5446 662.583 65.5335 664.308 66.5123L665.788 63.903C664.058 62.921 662.296 61.9288 660.504 60.9284L659.042 63.5476ZM669.514 69.4884C671.283 70.5071 673.014 71.512 674.707 72.5008L676.22 69.9105C674.523 68.9187 672.786 67.9107 671.011 66.8888L669.514 69.4884ZM679.919 75.5664C681.665 76.6002 683.362 77.6122 685.009 78.5991L686.551 76.0261C684.901 75.0365 683.198 74.0218 681.447 72.985L679.919 75.5664ZM690.219 81.7411C692.014 82.8296 693.735 83.8793 695.378 84.8853L696.945 82.3269C695.299 81.319 693.574 80.267 691.775 79.1759L690.219 81.7411ZM700.483 88.0232C702.316 89.1532 704.018 90.2061 705.585 91.1741L707.162 88.6217C705.596 87.6548 703.891 86.6004 702.058 85.4696L700.483 88.0232ZM710.761 94.356C711.666 94.9071 712.492 95.4053 713.234 95.8463L714.766 93.2673C714.037 92.8337 713.221 92.3415 712.322 91.7938L710.761 94.356Z" fill="#606060"/>
</svg>
