<svg width="122" height="115" viewBox="0 0 122 115" fill="none" xmlns="http://www.w3.org/2000/svg">
<path d="M0.211521 53.1377C-2.32562 83.0805 23.4464 111.826 46.5478 114.421C69.7159 117.016 94.7535 93.9265 107.506 104.706C110.911 107.567 111.512 111.293 113.849 111.027C119.257 110.495 123.931 90.0672 121.193 67.7764C120.459 62.1205 114.249 11.6834 76.7932 1.63591C46.2139 -6.54847 3.2828 16.807 0.211521 53.1377Z" fill="#E84652"/>
<path d="M99.0747 55.0204C99.0747 59.0679 95.7575 62.3564 91.7386 62.3564C87.656 62.3564 84.4026 59.0679 84.4026 55.0204C84.4026 50.9729 87.7198 47.6843 91.7386 47.6843C95.7575 47.7476 99.0747 50.9729 99.0747 55.0204Z" fill="white"/>
<g opacity="0.67">
<g opacity="0.67">
<path opacity="0.67" d="M44.3975 86.378C37.1391 83.7144 31.2792 78.1208 28.1495 71.0623C27.6833 70.0634 28.216 68.9314 29.2149 68.5318L30.6133 67.9991C31.6122 67.6662 32.6776 68.1323 33.1437 69.0646C35.6742 74.6581 40.4021 79.1197 46.1954 81.2506C47.1277 81.5835 47.5938 82.5824 47.3275 83.5812L46.8613 85.1128C46.5284 86.1783 45.3963 86.7776 44.3975 86.378Z" fill="white"/>
</g>
</g>
<g opacity="0.67">
<g opacity="0.67">
<path opacity="0.67" d="M76.0281 86.1783C83.0866 83.1152 88.6802 77.2552 91.4104 70.0635C91.81 69.0646 91.2106 67.9326 90.2118 67.5996L88.7468 67.1335C87.748 66.8006 86.6825 67.3333 86.283 68.3321C84.0189 74.0589 79.5573 78.7202 73.8972 81.2507C72.9649 81.6502 72.5654 82.6491 72.8983 83.5813L73.431 85.1129C73.8306 86.1118 75.0292 86.6445 76.0281 86.1783Z" fill="white"/>
</g>
</g>
<g opacity="0.67">
<g opacity="0.67">
<path opacity="0.67" d="M30.2801 42.8274L28.7485 42.3613C27.6831 42.0283 27.1504 40.8963 27.4833 39.8974C30.1469 32.6391 35.7405 26.7791 42.7325 23.6494C43.7314 23.1833 44.93 23.716 45.2629 24.7148L45.7957 26.2464C46.1286 27.1787 45.7291 28.1775 44.7968 28.5771C39.1366 31.1075 34.6751 35.8354 32.4776 41.6954C32.2112 42.6276 31.2124 43.0938 30.2801 42.8274Z" fill="white"/>
</g>
</g>
<g opacity="0.67">
<g opacity="0.67">
<path opacity="0.67" d="M89.7454 42.7613L91.277 42.2952C92.3424 41.9622 92.8752 40.8302 92.4756 39.8313C89.6788 32.6396 84.0852 26.7796 77.0267 23.7165C76.0278 23.3169 74.8292 23.7831 74.4962 24.8485L73.9635 26.3801C73.6306 27.3123 74.0967 28.3112 74.9624 28.7107C80.6891 31.1746 85.1507 35.9025 87.4147 41.6293C87.8143 42.5615 88.8131 43.0277 89.7454 42.7613Z" fill="white"/>
</g>
</g>
<path d="M19.2952 55.0204C19.2952 59.0679 22.7594 62.3564 27.0897 62.3564C31.42 62.3564 34.8843 59.0679 34.8843 55.0204C34.8843 50.9729 31.42 47.6843 27.0897 47.6843C22.7594 47.7476 19.2952 50.9729 19.2952 55.0204Z" fill="white"/>
<path d="M60.2033 95.3672C64.5218 95.3032 67.9631 91.9719 67.8956 87.936C67.8282 83.9001 64.3194 80.6329 60.0008 80.697C55.6823 80.761 52.241 84.0923 52.3085 88.1282C52.3759 92.1641 55.8847 95.4313 60.2033 95.3672Z" fill="white"/>
<path d="M60.0003 15.5898C64.3191 15.5229 67.8282 18.9347 67.8956 23.2831C67.9631 27.5645 64.5216 31.1101 60.2028 31.177C55.884 31.2439 52.375 27.8321 52.3075 23.4838C52.3075 19.1354 55.749 15.5898 60.0003 15.5898Z" fill="white"/>
</svg>
