<svg width="77" height="77" viewBox="0 0 77 77" fill="none" xmlns="http://www.w3.org/2000/svg">
<g filter="url(#filter0_d_1_373)">
<rect x="12" y="9" width="53" height="53" rx="10" fill="#E84652"/>
</g>
<path d="M33.6667 24.625V28.25C33.6667 28.8909 33.4121 29.5056 32.9588 29.9588C32.5056 30.4121 31.8909 30.6667 31.25 30.6667H27.625M49.375 30.6667H45.75C45.1091 30.6667 44.4944 30.4121 44.0412 29.9588C43.5879 29.5056 43.3333 28.8909 43.3333 28.25V24.625M43.3333 46.375V42.75C43.3333 42.1091 43.5879 41.4944 44.0412 41.0412C44.4944 40.5879 45.1091 40.3333 45.75 40.3333H49.375M27.625 40.3333H31.25C31.8909 40.3333 32.5056 40.5879 32.9588 41.0412C33.4121 41.4944 33.6667 42.1091 33.6667 42.75V46.375" stroke="white" stroke-width="2" stroke-linecap="round" stroke-linejoin="round"/>
<defs>
<filter id="filter0_d_1_373" x="0" y="0" width="77" height="77" filterUnits="userSpaceOnUse" color-interpolation-filters="sRGB">
<feFlood flood-opacity="0" result="BackgroundImageFix"/>
<feColorMatrix in="SourceAlpha" type="matrix" values="0 0 0 0 0 0 0 0 0 0 0 0 0 0 0 0 0 0 127 0" result="hardAlpha"/>
<feMorphology radius="2" operator="dilate" in="SourceAlpha" result="effect1_dropShadow_1_373"/>
<feOffset dy="3"/>
<feGaussianBlur stdDeviation="5"/>
<feColorMatrix type="matrix" values="0 0 0 0 0.909804 0 0 0 0 0.27451 0 0 0 0 0.321569 0 0 0 0.2 0"/>
<feBlend mode="normal" in2="BackgroundImageFix" result="effect1_dropShadow_1_373"/>
<feBlend mode="normal" in="SourceGraphic" in2="effect1_dropShadow_1_373" result="shape"/>
</filter>
</defs>
</svg>
