<svg width="190" height="77" viewBox="0 0 190 77" fill="none" xmlns="http://www.w3.org/2000/svg">
<g filter="url(#filter0_d_1_28)">
<path d="M110.233 32.0894C108.67 49.6938 124.549 66.5939 138.783 68.1197C153.057 69.6454 168.484 56.0705 176.341 62.408C178.44 64.0902 178.81 66.281 180.25 66.1245C183.582 65.8115 186.461 53.8015 184.775 40.696C184.322 37.3707 180.496 7.71719 157.418 1.80995C138.577 -3.00191 112.125 10.7295 110.233 32.0894Z" fill="#E84652"/>
<path d="M171.147 33.1964C171.147 35.576 169.103 37.5095 166.627 37.5095C164.111 37.5095 162.107 35.576 162.107 33.1964C162.107 30.8168 164.151 28.8833 166.627 28.8833C169.103 28.9205 171.147 30.8168 171.147 33.1964Z" fill="white"/>
<g opacity="0.67">
<g opacity="0.67">
<path opacity="0.67" d="M137.458 51.6325C132.986 50.0665 129.375 46.7779 127.447 42.6279C127.16 42.0407 127.488 41.3751 128.103 41.1402L128.965 40.827C129.58 40.6312 130.237 40.9053 130.524 41.4534C132.083 44.742 134.996 47.3651 138.566 48.6179C139.14 48.8137 139.427 49.401 139.263 49.9882L138.976 50.8887C138.771 51.5151 138.073 51.8674 137.458 51.6325Z" fill="white"/>
</g>
</g>
<g opacity="0.67">
<g opacity="0.67">
<path opacity="0.67" d="M156.947 51.5151C161.296 49.7141 164.742 46.2689 166.424 42.0406C166.671 41.4534 166.301 40.7878 165.686 40.5921L164.783 40.318C164.168 40.1223 163.511 40.4355 163.265 41.0227C161.87 44.3897 159.121 47.1302 155.634 48.6179C155.059 48.8528 154.813 49.4401 155.018 49.9882L155.347 50.8887C155.593 51.4759 156.331 51.7891 156.947 51.5151Z" fill="white"/>
</g>
</g>
<g opacity="0.67">
<g opacity="0.67">
<path opacity="0.67" d="M128.76 26.028L127.816 25.754C127.159 25.5582 126.831 24.8927 127.036 24.3054C128.678 20.038 132.124 16.5927 136.432 14.7527C137.047 14.4786 137.786 14.7918 137.991 15.3791L138.319 16.2795C138.525 16.8276 138.278 17.4149 137.704 17.6498C134.216 19.1375 131.468 21.9172 130.114 25.3625C129.949 25.9106 129.334 26.1846 128.76 26.028Z" fill="white"/>
</g>
</g>
<g opacity="0.67">
<g opacity="0.67">
<path opacity="0.67" d="M165.399 25.9889L166.342 25.7148C166.999 25.5191 167.327 24.8535 167.081 24.2663C165.358 20.038 161.911 16.5928 157.562 14.7918C156.947 14.5569 156.208 14.831 156.003 15.4574L155.675 16.3579C155.47 16.906 155.757 17.4932 156.29 17.7281C159.819 19.1767 162.568 21.9564 163.963 25.3233C164.209 25.8714 164.824 26.1455 165.399 25.9889Z" fill="white"/>
</g>
</g>
<path d="M121.991 33.1964C121.991 35.576 124.126 37.5095 126.794 37.5095C129.462 37.5095 131.596 35.576 131.596 33.1964C131.596 30.8168 129.462 28.8833 126.794 28.8833C124.126 28.9205 121.991 30.8168 121.991 33.1964Z" fill="white"/>
<path d="M147.197 56.9179C149.857 56.8802 151.978 54.9217 151.936 52.5488C151.895 50.176 149.733 48.2551 147.072 48.2928C144.411 48.3304 142.291 50.289 142.332 52.6618C142.374 55.0347 144.536 56.9555 147.197 56.9179Z" fill="white"/>
<path d="M147.071 10.014C149.732 9.97467 151.895 11.9806 151.936 14.5371C151.978 17.0543 149.857 19.1389 147.196 19.1782C144.535 19.2175 142.373 17.2116 142.332 14.6551C142.332 12.0986 144.452 10.014 147.071 10.014Z" fill="white"/>
<path d="M56.6627 46.6157H50.8914V50.6226H56.6627V46.6157Z" fill="#606060"/>
<path d="M51.6128 46.6157H45.8416V50.6226H51.6128V46.6157Z" fill="#606060"/>
<path d="M62.4339 46.6157H56.6627V50.6226H62.4339V46.6157Z" fill="#606060"/>
<path d="M14.0325 52.2174C14.0325 55.2138 11.4985 57.9685 7.72339 57.9685C5.4997 57.9685 4 57.0503 4 55.4071V53.6189C4.82742 53.7639 5.65484 53.7639 5.8617 53.7639C9.53337 53.7639 9.01623 50.9125 9.01623 46.3213V36.0757H10.9814C13.5153 36.0757 14.3427 37.0422 14.3427 39.4587V46.2247C14.6013 46.273 14.9116 46.3213 15.377 46.3213H18.4281V50.5259H14.0325V52.2174ZM8.65424 31.0012C8.65424 29.6963 9.74022 28.5847 11.2399 28.5847C12.6362 28.5847 13.8256 29.648 13.8256 31.0012C13.8256 32.4027 12.5845 33.4659 11.2399 33.4659C10.8262 33.4659 10.4642 33.3693 10.1539 33.2726C9.22309 32.8376 8.65424 32.0161 8.65424 31.0012Z" fill="#606060"/>
<path d="M46.2023 46.6157C42.3942 46.6157 40.8248 45.1645 40.8248 41.8995C40.8248 36.7338 37.5906 32.5916 31.6437 32.5916C26.1664 32.5916 22.8278 36.7338 22.8278 41.2172C22.7235 45.0183 21.628 46.3828 17.4548 46.3828H16.9853V50.6226H18.1851C18.3416 50.6226 18.4459 50.6226 18.6024 50.6226C21.5237 50.5738 23.8189 49.7454 25.4361 48.1372C27.0532 49.6479 29.2963 50.6226 32.061 50.6226C34.6693 50.6226 36.7559 49.6966 38.2687 48.2347C39.938 49.8428 42.2854 50.6226 45.3632 50.6226H46.563V46.6157H46.2023ZM31.9567 46.7727C28.7225 46.7727 26.8445 46.3828 26.8445 42.4355C26.8445 39.9989 27.2618 38.3907 28.0965 37.3674C29.4006 35.9054 31.1742 36.0516 31.9567 36.1003C32.5827 36.1491 33.8347 36.1978 35.0345 37.2699C36.6516 38.7806 36.8081 41.071 36.8602 41.7045C36.9646 42.533 37.4341 46.7727 31.9567 46.7727Z" fill="#606060"/>
<path d="M76.1406 46.5261V50.6226H75.7799C72.9095 50.6226 70.825 50.0932 69.1772 48.7738C67.8483 49.9466 66.0675 50.5248 63.516 50.6226H60.6304V46.6157L63.011 46.5261C65.1905 46.3795 66.041 45.3045 66.041 43.301V36.2646H67.6888C70.0808 36.2646 71.3034 37.3884 71.3034 39.5873V42.1772C71.4629 45.2067 72.6855 46.5261 76.1406 46.5261ZM61.629 55.8103C61.629 54.491 62.8516 53.3671 64.34 53.3671C65.7752 53.3671 66.9978 54.491 66.9978 55.8103C66.9978 57.2274 65.7752 58.3024 64.34 58.3024C62.8516 58.3024 61.629 57.2274 61.629 55.8103ZM67.6888 55.8103C67.6888 54.491 68.9114 53.3671 70.3466 53.3671C71.7818 53.3671 73.1107 54.491 73.1107 55.8103C73.1107 57.2274 71.835 58.3024 70.3466 58.3024C68.9114 58.3024 67.6888 57.2274 67.6888 55.8103Z" fill="#606060"/>
<path d="M86.4886 39.6753V43.4997C86.4886 47.3719 84.0063 50.4313 78.8349 50.6226H74.6978V46.4636H78.4729C80.5415 46.2724 81.3689 45.2207 81.3689 43.3085V36.4246H83.0238C85.2992 36.3768 86.4886 37.4763 86.4886 39.6753ZM78.0075 30.9749C78.0075 29.6364 79.1969 28.5847 80.6449 28.5847C82.0412 28.5847 83.2306 29.6364 83.2306 30.9749C83.2306 32.3135 82.0412 33.3652 80.6449 33.3652C79.1452 33.3652 78.0075 32.3135 78.0075 30.9749ZM83.9029 30.9749C83.9029 29.6364 85.0406 28.5847 86.4369 28.5847C87.8331 28.5847 89.126 29.6364 89.126 30.9749C89.126 32.3135 87.8848 33.3652 86.4369 33.3652C84.9889 33.3652 83.9029 32.3135 83.9029 30.9749Z" fill="#606060"/>
</g>
<defs>
<filter id="filter0_d_1_28" x="0" y="0.848145" width="189.272" height="75.3921" filterUnits="userSpaceOnUse" color-interpolation-filters="sRGB">
<feFlood flood-opacity="0" result="BackgroundImageFix"/>
<feColorMatrix in="SourceAlpha" type="matrix" values="0 0 0 0 0 0 0 0 0 0 0 0 0 0 0 0 0 0 127 0" result="hardAlpha"/>
<feOffset dy="4"/>
<feGaussianBlur stdDeviation="2"/>
<feComposite in2="hardAlpha" operator="out"/>
<feColorMatrix type="matrix" values="0 0 0 0 0 0 0 0 0 0 0 0 0 0 0 0 0 0 0.25 0"/>
<feBlend mode="normal" in2="BackgroundImageFix" result="effect1_dropShadow_1_28"/>
<feBlend mode="normal" in="SourceGraphic" in2="effect1_dropShadow_1_28" result="shape"/>
</filter>
</defs>
</svg>
