<svg width="35" height="35" viewBox="0 0 35 35" fill="none" xmlns="http://www.w3.org/2000/svg">
<path d="M27.7083 5.83325H7.29166C6.13133 5.83325 5.01854 6.29419 4.19806 7.11466C3.37759 7.93513 2.91666 9.04793 2.91666 10.2083V24.7916C2.91666 25.9519 3.37759 27.0647 4.19806 27.8852C5.01854 28.7056 6.13133 29.1666 7.29166 29.1666H27.7083C28.8686 29.1666 29.9814 28.7056 30.8019 27.8852C31.6224 27.0647 32.0833 25.9519 32.0833 24.7916V10.2083C32.0833 9.04793 31.6224 7.93513 30.8019 7.11466C29.9814 6.29419 28.8686 5.83325 27.7083 5.83325ZM27.1104 8.74992L18.5354 17.3249C18.3998 17.4616 18.2385 17.5701 18.0608 17.6441C17.8831 17.7182 17.6925 17.7563 17.5 17.7563C17.3075 17.7563 17.1169 17.7182 16.9391 17.6441C16.7614 17.5701 16.6001 17.4616 16.4646 17.3249L7.88957 8.74992H27.1104ZM29.1667 24.7916C29.1667 25.1784 29.013 25.5493 28.7395 25.8228C28.466 26.0963 28.0951 26.2499 27.7083 26.2499H7.29166C6.90488 26.2499 6.53395 26.0963 6.26046 25.8228C5.98697 25.5493 5.83332 25.1784 5.83332 24.7916V10.8062L14.4083 19.3812C15.2286 20.2005 16.3406 20.6607 17.5 20.6607C18.6594 20.6607 19.7713 20.2005 20.5917 19.3812L29.1667 10.8062V24.7916Z" fill="white"/>
</svg>
