<svg width="77" height="77" viewBox="0 0 77 77" fill="none" xmlns="http://www.w3.org/2000/svg">
<g filter="url(#filter0_d_1_379)">
<rect x="12" y="9" width="53" height="53" rx="10" fill="#E84652"/>
</g>
<path d="M46 37H30C28.8954 37 28 37.8954 28 39V43C28 44.1046 28.8954 45 30 45H46C47.1046 45 48 44.1046 48 43V39C48 37.8954 47.1046 37 46 37Z" stroke="white" stroke-width="2" stroke-linecap="round" stroke-linejoin="round"/>
<path d="M32 41H32.01" stroke="white" stroke-width="2" stroke-linecap="round" stroke-linejoin="round"/>
<path d="M46 25H30C28.8954 25 28 25.8954 28 27V31C28 32.1046 28.8954 33 30 33H46C47.1046 33 48 32.1046 48 31V27C48 25.8954 47.1046 25 46 25Z" stroke="white" stroke-width="2" stroke-linecap="round" stroke-linejoin="round"/>
<path d="M32 29H32.01" stroke="white" stroke-width="2" stroke-linecap="round" stroke-linejoin="round"/>
<defs>
<filter id="filter0_d_1_379" x="0" y="0" width="77" height="77" filterUnits="userSpaceOnUse" color-interpolation-filters="sRGB">
<feFlood flood-opacity="0" result="BackgroundImageFix"/>
<feColorMatrix in="SourceAlpha" type="matrix" values="0 0 0 0 0 0 0 0 0 0 0 0 0 0 0 0 0 0 127 0" result="hardAlpha"/>
<feMorphology radius="2" operator="dilate" in="SourceAlpha" result="effect1_dropShadow_1_379"/>
<feOffset dy="3"/>
<feGaussianBlur stdDeviation="5"/>
<feColorMatrix type="matrix" values="0 0 0 0 0.909804 0 0 0 0 0.27451 0 0 0 0 0.321569 0 0 0 0.2 0"/>
<feBlend mode="normal" in2="BackgroundImageFix" result="effect1_dropShadow_1_379"/>
<feBlend mode="normal" in="SourceGraphic" in2="effect1_dropShadow_1_379" result="shape"/>
</filter>
</defs>
</svg>
