<svg width="36" height="37" viewBox="0 0 36 37" fill="none" xmlns="http://www.w3.org/2000/svg">
<path d="M21.54 21.7796C20.5373 22.588 19.288 23.0289 18 23.0289C16.712 23.0289 15.4627 22.588 14.46 21.7796C14.1537 21.525 13.7588 21.4025 13.3621 21.439C12.9655 21.4756 12.5996 21.6682 12.345 21.9746C12.0904 22.2809 11.9679 22.6758 12.0045 23.0725C12.041 23.4691 12.2337 23.835 12.54 24.0896C14.072 25.3685 16.0044 26.069 18 26.069C19.9957 26.069 21.928 25.3685 23.46 24.0896C23.7663 23.835 23.959 23.4691 23.9955 23.0725C24.0321 22.6758 23.9096 22.2809 23.655 21.9746C23.5289 21.8229 23.3742 21.6975 23.1997 21.6056C23.0252 21.5138 22.8343 21.4571 22.6379 21.439C22.2413 21.4025 21.8463 21.525 21.54 21.7796ZM13.5 16.9346C13.7967 16.9346 14.0867 16.8466 14.3334 16.6818C14.58 16.517 14.7723 16.2827 14.8858 16.0086C14.9994 15.7345 15.0291 15.4329 14.9712 15.1419C14.9133 14.851 14.7704 14.5837 14.5607 14.3739C14.3509 14.1641 14.0836 14.0213 13.7926 13.9634C13.5017 13.9055 13.2001 13.9352 12.926 14.0488C12.6519 14.1623 12.4176 14.3545 12.2528 14.6012C12.088 14.8479 12 15.1379 12 15.4346C12 15.8324 12.158 16.2139 12.4393 16.4952C12.7207 16.7765 13.1022 16.9346 13.5 16.9346ZM22.5 13.9346C22.2033 13.9346 21.9133 14.0225 21.6667 14.1874C21.42 14.3522 21.2277 14.5865 21.1142 14.8605C21.0007 15.1346 20.971 15.4362 21.0288 15.7272C21.0867 16.0182 21.2296 16.2855 21.4393 16.4952C21.6491 16.705 21.9164 16.8479 22.2074 16.9057C22.4983 16.9636 22.7999 16.9339 23.074 16.8204C23.3481 16.7069 23.5824 16.5146 23.7472 16.2679C23.912 16.0213 24 15.7312 24 15.4346C24 15.0367 23.842 14.6552 23.5607 14.3739C23.2794 14.0926 22.8978 13.9346 22.5 13.9346ZM18 3.43457C15.0333 3.43457 12.1332 4.31431 9.66645 5.96253C7.19972 7.61075 5.27713 9.95343 4.14181 12.6943C3.0065 15.4352 2.70945 18.4512 3.28823 21.3609C3.86701 24.2706 5.29562 26.9434 7.39341 29.0412C9.49119 31.139 12.1639 32.5676 15.0737 33.1464C17.9834 33.7251 20.9994 33.4281 23.7403 32.2928C26.4812 31.1574 28.8238 29.2349 30.4721 26.7681C32.1203 24.3014 33 21.4013 33 18.4346C33 16.4647 32.612 14.5142 31.8582 12.6943C31.1044 10.8744 29.9995 9.22085 28.6066 7.82797C27.2137 6.43509 25.5601 5.3302 23.7403 4.57638C21.9204 3.82256 19.9698 3.43457 18 3.43457ZM18 30.4346C15.6266 30.4346 13.3066 29.7308 11.3332 28.4122C9.35977 27.0936 7.8217 25.2195 6.91345 23.0268C6.0052 20.8341 5.76756 18.4213 6.23058 16.0935C6.69361 13.7657 7.8365 11.6275 9.51473 9.94929C11.193 8.27106 13.3312 7.12817 15.6589 6.66515C17.9867 6.20212 20.3995 6.43976 22.5922 7.34802C24.7849 8.25627 26.6591 9.79434 27.9776 11.7677C29.2962 13.7411 30 16.0612 30 18.4346C30 21.6172 28.7357 24.6694 26.4853 26.9199C24.2349 29.1703 21.1826 30.4346 18 30.4346Z" fill="white"/>
</svg>
