<svg width="37" height="36" viewBox="0 0 37 36" fill="none" xmlns="http://www.w3.org/2000/svg">
<g clip-path="url(#clip0_1_405)">
<path fill-rule="evenodd" clip-rule="evenodd" d="M35.9238 15.9765V15.8865C34.8471 12.9974 32.8843 10.4998 30.3009 8.73161C27.7176 6.9634 24.6384 6.00989 21.4799 6.00008C18.3214 5.99026 15.236 6.9246 12.6411 8.67671C10.0462 10.4288 8.06704 12.9141 6.97134 15.7965C6.912 15.9098 6.87043 16.0312 6.84801 16.1565C6.28991 17.7142 6.00332 19.3518 6.00009 21.0015C5.99246 23.1915 6.4778 25.3566 7.42203 27.3447C8.36626 29.3327 9.74646 31.0955 11.4657 32.5091C13.1849 33.9227 15.2013 34.9529 17.3735 35.5273C19.5456 36.1016 21.8206 36.2063 24.0387 35.8338C26.2568 35.4613 28.3642 34.6208 30.2127 33.3712C32.0613 32.1217 33.6062 30.4934 34.7389 28.6009C35.8717 26.7084 36.5647 24.5974 36.7694 22.4165C36.9741 20.2355 36.6855 18.0373 35.9238 15.9765ZM21.4168 9.00147C23.5796 9.00362 25.7038 9.55912 27.5763 10.6122C29.4487 11.6653 31.0037 13.179 32.0851 15.0015H30.2351C29.7767 14.5112 29.2126 14.1255 28.5831 13.8719C27.9537 13.6184 27.2745 13.5032 26.594 13.5348C25.9135 13.5663 25.2486 13.7437 24.6468 14.0543C24.0449 14.3649 23.5211 14.801 23.1126 15.3315C22.572 15.1243 21.9977 15.0125 21.4168 15.0015C20.8358 15.0125 20.2615 15.1243 19.7209 15.3315C19.3124 14.801 18.7886 14.3649 18.1867 14.0543C17.5849 13.7437 16.92 13.5663 16.2395 13.5348C15.5591 13.5032 14.8798 13.6184 14.2504 13.8719C13.621 14.1255 13.0569 14.5112 12.5984 15.0015H10.7484C11.8298 13.179 13.3848 11.6653 15.2573 10.6122C17.1298 9.55912 19.2539 9.00362 21.4168 9.00147ZM21.4168 33.0015C18.1458 33.0015 15.0087 31.7372 12.6958 29.4867C10.3828 27.2363 9.08342 24.1841 9.08342 21.0015C9.09027 19.9893 9.22489 18.9817 9.48426 18.0015H11.3959C11.3591 19.1949 11.8111 20.3538 12.6524 21.223C13.4938 22.0922 14.6555 22.6007 15.8822 22.6365C17.1088 22.6723 18.2998 22.2325 19.1932 21.4139C20.0866 20.5953 20.6091 19.4649 20.6459 18.2715C20.8803 18.1398 21.1461 18.0705 21.4168 18.0705C21.6874 18.0705 21.9532 18.1398 22.1876 18.2715C22.2244 19.4649 22.747 20.5953 23.6403 21.4139C24.5337 22.2325 25.7247 22.6723 26.9513 22.6365C28.178 22.6007 29.3397 22.0922 30.1811 21.223C31.0224 20.3538 31.4744 19.1949 31.4376 18.0015H33.3493C33.6086 18.9817 33.7432 19.9893 33.7501 21.0015C33.7501 24.1841 32.4507 27.2363 30.1377 29.4867C27.8248 31.7372 24.6878 33.0015 21.4168 33.0015ZM25.0551 24.3465C24.0245 25.1549 22.7406 25.5958 21.4168 25.5958C20.0929 25.5958 18.809 25.1549 17.7784 24.3465C17.4636 24.0919 17.0577 23.9694 16.65 24.0059C16.2424 24.0425 15.8664 24.2351 15.6047 24.5415C15.343 24.8478 15.2171 25.2427 15.2547 25.6394C15.2923 26.036 15.4903 26.4019 15.8051 26.6565C17.3797 27.9354 19.3657 28.6359 21.4168 28.6359C23.4678 28.6359 25.4539 27.9354 27.0284 26.6565C27.3433 26.4019 27.5412 26.036 27.5788 25.6394C27.6164 25.2427 27.4905 24.8478 27.2288 24.5415C27.0993 24.3898 26.9403 24.2644 26.7609 24.1725C26.5815 24.0807 26.3853 24.024 26.1835 24.0059C25.7758 23.9694 25.3699 24.0919 25.0551 24.3465Z" fill="white"/>
</g>
<defs>
<clipPath id="clip0_1_405">
<rect width="37" height="36" fill="white"/>
</clipPath>
</defs>
</svg>
