<svg width="35" height="36" viewBox="0 0 35 36" fill="none" xmlns="http://www.w3.org/2000/svg">
<path d="M20.9417 21.345C19.9668 22.1535 18.7523 22.5943 17.5 22.5943C16.2477 22.5943 15.0332 22.1535 14.0583 21.345C13.7605 21.0904 13.3766 20.9679 12.9909 21.0045C12.6053 21.041 12.2496 21.2337 12.0021 21.54C11.7546 21.8463 11.6355 22.2413 11.671 22.6379C11.7066 23.0345 11.8939 23.4004 12.1917 23.655C13.6811 24.9339 15.5598 25.6345 17.5 25.6345C19.4402 25.6345 21.3189 24.9339 22.8083 23.655C23.1062 23.4004 23.2934 23.0345 23.329 22.6379C23.3645 22.2413 23.2455 21.8463 22.9979 21.54C22.8754 21.3883 22.7249 21.263 22.5553 21.1711C22.3856 21.0792 22.2 21.0226 22.0091 21.0045C21.6234 20.9679 21.2395 21.0904 20.9417 21.345ZM13.4313 15.81C13.7045 16.0894 14.0741 16.2462 14.4594 16.2462C14.8446 16.2462 15.2143 16.0894 15.4875 15.81C15.7591 15.529 15.9116 15.1488 15.9116 14.7525C15.9116 14.3562 15.7591 13.976 15.4875 13.695C14.6529 12.8805 13.5463 12.4264 12.3958 12.4264C11.2454 12.4264 10.1387 12.8805 9.30417 13.695C9.15151 13.8295 9.02752 13.995 8.93999 14.181C8.85245 14.3671 8.80326 14.5698 8.7955 14.7764C8.78775 14.983 8.82159 15.189 8.89491 15.3815C8.96822 15.574 9.07943 15.7488 9.22155 15.895C9.36367 16.0412 9.53364 16.1555 9.72078 16.231C9.90792 16.3064 10.1082 16.3412 10.309 16.3332C10.5099 16.3252 10.7069 16.2746 10.8879 16.1846C11.0688 16.0946 11.2297 15.967 11.3604 15.81C11.496 15.6694 11.6573 15.5578 11.835 15.4817C12.0127 15.4055 12.2033 15.3663 12.3958 15.3663C12.5884 15.3663 12.779 15.4055 12.9567 15.4817C13.1344 15.5578 13.2957 15.6694 13.4313 15.81ZM25.6958 13.695C24.8613 12.8805 23.7546 12.4264 22.6042 12.4264C21.4537 12.4264 20.3471 12.8805 19.5125 13.695C19.2736 13.982 19.1487 14.3511 19.1629 14.7286C19.1771 15.1061 19.3293 15.4642 19.589 15.7313C19.8487 15.9985 20.1969 16.155 20.5639 16.1696C20.9309 16.1842 21.2898 16.0557 21.5688 15.81C21.7043 15.6694 21.8656 15.5578 22.0433 15.4817C22.221 15.4055 22.4117 15.3663 22.6042 15.3663C22.7967 15.3663 22.9873 15.4055 23.165 15.4817C23.3427 15.5578 23.504 15.6694 23.6396 15.81C23.9128 16.0894 24.2824 16.2462 24.6677 16.2462C25.053 16.2462 25.4226 16.0894 25.6958 15.81C25.9675 15.529 26.1199 15.1488 26.1199 14.7525C26.1199 14.3562 25.9675 13.976 25.6958 13.695ZM17.5 3C14.6157 3 11.7962 3.87973 9.39794 5.52796C6.99972 7.17618 5.13054 9.51886 4.02676 12.2598C2.92298 15.0006 2.63418 18.0166 3.19688 20.9264C3.75958 23.8361 5.14851 26.5088 7.18803 28.6066C9.22754 30.7044 11.826 32.133 14.6549 32.7118C17.4838 33.2906 20.416 32.9935 23.0808 31.8582C25.7456 30.7229 28.0232 28.8003 29.6256 26.3336C31.228 23.8668 32.0833 20.9667 32.0833 18C32.0833 16.0302 31.7061 14.0796 30.9732 12.2598C30.2404 10.4399 29.1662 8.78628 27.812 7.3934C26.4578 6.00052 24.8501 4.89563 23.0808 4.14181C21.3115 3.38799 19.4151 3 17.5 3ZM17.5 30C15.1926 30 12.9369 29.2962 11.0183 27.9776C9.09978 26.6591 7.60443 24.7849 6.72141 22.5922C5.83839 20.3995 5.60735 17.9867 6.05751 15.6589C6.50767 13.3311 7.61881 11.193 9.25042 9.51472C10.882 7.83649 12.9608 6.6936 15.2239 6.23058C17.4871 5.76755 19.8328 6.0052 21.9646 6.91345C24.0964 7.8217 25.9185 9.35977 27.2005 11.3332C28.4824 13.3065 29.1667 15.6266 29.1667 18C29.1667 21.1826 27.9375 24.2348 25.7496 26.4853C23.5617 28.7357 20.5942 30 17.5 30Z" fill="white"/>
</svg>
