<svg width="138" height="51" viewBox="0 0 138 51" fill="none" xmlns="http://www.w3.org/2000/svg">
<path d="M85.3729 30.9438H76.017V37.8202H85.3729V30.9438Z" fill="white"/>
<path d="M77.1865 30.9438H67.8305V37.8202H77.1865V30.9438Z" fill="white"/>
<path d="M94.7288 30.9438H85.3729V37.8202H94.7288V30.9438Z" fill="white"/>
<path d="M16.2639 40.5572C16.2639 45.6994 12.156 50.427 6.03609 50.427C2.4312 50.427 0 48.8511 0 46.0312V42.9625C1.34135 43.2113 2.68271 43.2113 3.01804 43.2113C8.9703 43.2113 8.13195 38.3179 8.13195 30.4387V12.8556H11.3177C15.4256 12.8556 16.7669 14.5143 16.7669 18.6613V30.2728C17.1861 30.3557 17.6891 30.4387 18.4436 30.4387H23.3898V37.6544H16.2639V40.5572ZM7.54511 4.14697C7.54511 1.90761 9.30563 1.25284e-05 11.7368 1.25284e-05C14.0004 1.25284e-05 15.9286 1.82467 15.9286 4.14697C15.9286 6.5522 13.9165 8.37686 11.7368 8.37686C11.0662 8.37686 10.4793 8.21099 9.97631 8.04511C8.46729 7.29866 7.54511 5.88869 7.54511 4.14697Z" fill="white"/>
<path d="M68.4152 30.9438C62.2419 30.9438 59.6977 28.4534 59.6977 22.8501C59.6977 13.9851 54.4546 6.8764 44.814 6.8764C35.9345 6.8764 30.5223 13.9851 30.5223 21.6793C30.3531 28.2025 28.5772 30.5442 21.8119 30.5442H21.0508V37.8202H22.9958C23.2495 37.8202 23.4187 37.8202 23.6724 37.8202C28.4081 37.7366 32.129 36.3148 34.7506 33.555C37.3721 36.1476 41.0085 37.8202 45.4905 37.8202C49.7188 37.8202 53.1015 36.2312 55.5539 33.7223C58.26 36.4821 62.0655 37.8202 67.055 37.8202H69V30.9438H68.4152ZM45.3214 31.2133C40.0783 31.2133 37.0339 30.5442 37.0339 23.7701C37.0339 19.5885 37.7104 16.8286 39.0635 15.0723C41.1776 12.5634 44.0529 12.8143 45.3214 12.8979C46.3362 12.9815 48.3658 13.0652 50.3108 14.9051C52.9324 17.4977 53.1861 21.4284 53.2706 22.5156C53.4398 23.9373 54.2009 31.2133 45.3214 31.2133Z" fill="white"/>
<path d="M116.949 30.7901V37.8202H116.364C111.711 37.8202 108.332 36.9117 105.66 34.6476C103.506 36.6602 100.619 37.6525 96.483 37.8202H91.8051V30.9438L95.6644 30.7901C99.1975 30.5385 100.576 28.6936 100.576 25.2554V13.1798H103.248C107.125 13.1798 109.107 15.1085 109.107 18.8821V23.3267C109.366 28.5259 111.348 30.7901 116.949 30.7901ZM93.4239 46.7232C93.4239 44.459 95.4059 42.5303 97.8187 42.5303C100.145 42.5303 102.127 44.459 102.127 46.7232C102.127 49.1551 100.145 51 97.8187 51C95.4059 51 93.4239 49.1551 93.4239 46.7232ZM103.248 46.7232C103.248 44.459 105.23 42.5303 107.556 42.5303C109.883 42.5303 112.037 44.459 112.037 46.7232C112.037 49.1551 109.969 51 107.556 51C105.23 51 103.248 49.1551 103.248 46.7232Z" fill="white"/>
<path d="M133.724 19.0332V25.5963C133.724 32.2415 129.7 37.4921 121.317 37.8202H114.61V30.6828H120.73C124.083 30.3546 125.425 28.5498 125.425 25.2682V13.4545H128.108C131.796 13.3724 133.724 15.2594 133.724 19.0332ZM119.976 4.10198C119.976 1.80487 121.904 0 124.251 0C126.515 0 128.443 1.80487 128.443 4.10198C128.443 6.39908 126.515 8.20395 124.251 8.20395C121.82 8.20395 119.976 6.39908 119.976 4.10198ZM129.533 4.10198C129.533 1.80487 131.377 0 133.641 0C135.904 0 138 1.80487 138 4.10198C138 6.39908 135.988 8.20395 133.641 8.20395C131.293 8.20395 129.533 6.39908 129.533 4.10198Z" fill="white"/>
</svg>
