<svg width="29" height="29" viewBox="0 0 29 29" fill="none" xmlns="http://www.w3.org/2000/svg">
<path d="M25.2542 2.41675H3.74582C3.39331 2.41675 3.05523 2.55678 2.80596 2.80605C2.55669 3.05532 2.41666 3.3934 2.41666 3.74591V25.2542C2.41666 25.4288 2.45104 25.6016 2.51783 25.7629C2.58463 25.9242 2.68254 26.0707 2.80596 26.1941C2.92939 26.3175 3.07591 26.4154 3.23717 26.4822C3.39844 26.549 3.57127 26.5834 3.74582 26.5834H15.3217V17.2188H12.18V13.5938H15.3217V10.8751C15.2566 10.2368 15.3319 9.59198 15.5424 8.9859C15.7529 8.37981 16.0935 7.82712 16.5402 7.36658C16.9869 6.90604 17.529 6.54881 18.1284 6.31995C18.7278 6.09109 19.37 5.99614 20.01 6.04175C20.9505 6.03596 21.8905 6.08437 22.8254 6.18675V9.44925H20.9042C19.3817 9.44925 19.0917 10.1742 19.0917 11.2255V13.5576H22.7167L22.2454 17.1826H19.0917V26.5834H25.2542C25.4287 26.5834 25.6015 26.549 25.7628 26.4822C25.9241 26.4154 26.0706 26.3175 26.194 26.1941C26.3174 26.0707 26.4153 25.9242 26.4821 25.7629C26.5489 25.6016 26.5833 25.4288 26.5833 25.2542V3.74591C26.5833 3.57137 26.5489 3.39853 26.4821 3.23726C26.4153 3.076 26.3174 2.92948 26.194 2.80605C26.0706 2.68263 25.9241 2.58472 25.7628 2.51792C25.6015 2.45113 25.4287 2.41675 25.2542 2.41675Z" fill="white"/>
</svg>
