<svg width="32" height="32" viewBox="0 0 32 32" fill="none" xmlns="http://www.w3.org/2000/svg">
<path d="M16 12.6934C15.346 12.6934 14.7067 12.8873 14.1629 13.2507C13.6191 13.614 13.1953 14.1305 12.945 14.7347C12.6948 15.3389 12.6293 16.0037 12.7569 16.6452C12.8844 17.2866 13.1994 17.8758 13.6618 18.3382C14.1243 18.8007 14.7135 19.1156 15.3549 19.2432C15.9963 19.3708 16.6612 19.3053 17.2654 19.055C17.8696 18.8048 18.386 18.3809 18.7494 17.8372C19.1127 17.2934 19.3067 16.6541 19.3067 16.0001C19.3067 15.5658 19.2211 15.1359 19.055 14.7347C18.8888 14.3335 18.6452 13.969 18.3382 13.6619C18.0311 13.3549 17.6666 13.1113 17.2654 12.9451C16.8642 12.7789 16.4342 12.6934 16 12.6934ZM29.24 9.42675C29.233 8.39709 29.0434 7.37684 28.68 6.41341C28.4124 5.70843 27.9983 5.06821 27.4651 4.535C26.9319 4.00178 26.2916 3.5877 25.5867 3.32008C24.6232 2.9567 23.603 2.7671 22.5733 2.76008C20.8533 2.66675 20.3467 2.66675 16 2.66675C11.6533 2.66675 11.1467 2.66675 9.42666 2.76008C8.397 2.7671 7.37675 2.9567 6.41332 3.32008C5.70834 3.5877 5.06811 4.00178 4.5349 4.535C4.00169 5.06821 3.58761 5.70843 3.31999 6.41341C2.95661 7.37684 2.767 8.39709 2.75999 9.42675C2.66666 11.1467 2.66666 11.6534 2.66666 16.0001C2.66666 20.3467 2.66666 20.8534 2.75999 22.5734C2.77434 23.6067 2.96369 24.6301 3.31999 25.6001C3.58643 26.3018 4.00016 26.9384 4.53332 27.4667C5.06425 28.0032 5.70584 28.4172 6.41332 28.6801C7.37675 29.0435 8.397 29.2331 9.42666 29.2401C11.1467 29.3334 11.6533 29.3334 16 29.3334C20.3467 29.3334 20.8533 29.3334 22.5733 29.2401C23.603 29.2331 24.6232 29.0435 25.5867 28.6801C26.2941 28.4172 26.9357 28.0032 27.4667 27.4667C27.9998 26.9384 28.4136 26.3018 28.68 25.6001C29.043 24.6319 29.2326 23.6074 29.24 22.5734C29.3333 20.8534 29.3333 20.3467 29.3333 16.0001C29.3333 11.6534 29.3333 11.1467 29.24 9.42675ZM25.8533 20.0934C25.8105 20.9162 25.6349 21.7267 25.3333 22.4934C25.0745 23.133 24.6897 23.714 24.2018 24.2019C23.7139 24.6898 23.1329 25.0746 22.4933 25.3334C21.7193 25.6182 20.9044 25.7758 20.08 25.8001C19.0267 25.8001 18.7467 25.8001 16 25.8001C13.2533 25.8001 12.9733 25.8001 11.92 25.8001C11.0956 25.7758 10.2806 25.6182 9.50666 25.3334C8.84546 25.0877 8.24836 24.6957 7.75999 24.1867C7.27688 23.7084 6.90378 23.1306 6.66666 22.4934C6.38073 21.7202 6.22747 20.9043 6.21332 20.0801C6.21332 19.0267 6.21332 18.7467 6.21332 16.0001C6.21332 13.2534 6.21332 12.9734 6.21332 11.9201C6.22747 11.0958 6.38073 10.2799 6.66666 9.50675C6.91236 8.84555 7.30436 8.24845 7.81332 7.76008C8.29377 7.27958 8.87101 6.90687 9.50666 6.66675C10.2806 6.38196 11.0956 6.22436 11.92 6.20008C12.9733 6.20008 13.2533 6.20008 16 6.20008C18.7467 6.20008 19.0267 6.20008 20.08 6.20008C20.9044 6.22436 21.7193 6.38196 22.4933 6.66675C23.1545 6.91246 23.7516 7.30445 24.24 7.81342C24.7231 8.29175 25.0962 8.86959 25.3333 9.50675C25.6181 10.2807 25.7757 11.0957 25.8 11.9201C25.8 12.9734 25.8 13.2534 25.8 16.0001C25.8 18.7467 25.8933 19.0267 25.8533 20.0801V20.0934ZM23.72 10.1734C23.5612 9.74273 23.3109 9.3516 22.9864 9.02703C22.6618 8.70246 22.2707 8.45217 21.84 8.29341C21.2486 8.08843 20.6258 7.98914 20 8.00008C18.96 8.00008 18.6667 8.00008 16 8.00008C13.3333 8.00008 13.04 8.00008 12 8.00008C11.371 8.00623 10.7481 8.12359 10.16 8.34675C9.7359 8.49829 9.34891 8.73837 9.02477 9.05102C8.70062 9.36367 8.44674 9.74173 8.27999 10.1601C8.08636 10.7539 7.99176 11.3755 7.99999 12.0001C7.99999 13.0401 7.99999 13.3334 7.99999 16.0001C7.99999 18.6667 7.99999 18.9601 7.99999 20.0001C8.01321 20.6283 8.13035 21.2501 8.34666 21.8401C8.50541 22.2708 8.7557 22.6619 9.08027 22.9865C9.40485 23.311 9.79597 23.5613 10.2267 23.7201C10.7955 23.9293 11.3942 24.0463 12 24.0667C13.04 24.0667 13.3333 24.0667 16 24.0667C18.6667 24.0667 18.96 24.0667 20 24.0667C20.629 24.0606 21.2519 23.9432 21.84 23.7201C22.2707 23.5613 22.6618 23.311 22.9864 22.9865C23.3109 22.6619 23.5612 22.2708 23.72 21.8401C23.9431 21.252 24.0605 20.6291 24.0667 20.0001C24.0667 18.9601 24.0667 18.6667 24.0667 16.0001C24.0667 13.3334 24.0667 13.0401 24.0667 12.0001C24.067 11.3705 23.9495 10.7464 23.72 10.1601V10.1734ZM16 21.0934C15.3318 21.0934 14.6701 20.9616 14.0529 20.7055C13.4357 20.4493 12.8751 20.0739 12.4032 19.6008C11.9313 19.1277 11.5574 18.5661 11.3028 17.9482C11.0483 17.3303 10.9182 16.6683 10.92 16.0001C10.92 14.9921 11.2191 14.0069 11.7793 13.169C12.3396 12.3311 13.1358 11.6783 14.0673 11.2932C14.9987 10.9081 16.0235 10.808 17.0119 11.0056C18.0003 11.2032 18.9078 11.6896 19.6196 12.4033C20.3314 13.1169 20.8154 14.0257 21.0104 15.0146C21.2054 16.0035 21.1027 17.028 20.7151 17.9585C20.3276 18.8889 19.6727 19.6835 18.8333 20.2415C17.994 20.7996 17.0079 21.0961 16 21.0934ZM21.3333 11.9067C21.0386 11.8756 20.7658 11.7364 20.5676 11.516C20.3693 11.2957 20.2596 11.0098 20.2596 10.7134C20.2596 10.417 20.3693 10.1311 20.5676 9.91079C20.7658 9.69045 21.0386 9.55128 21.3333 9.52008C21.6281 9.55128 21.9008 9.69045 22.0991 9.91079C22.2973 10.1311 22.407 10.417 22.407 10.7134C22.407 11.0098 22.2973 11.2957 22.0991 11.516C21.9008 11.7364 21.6281 11.8756 21.3333 11.9067Z" fill="white"/>
</svg>
