<svg width="29" height="29" viewBox="0 0 29 29" fill="none" xmlns="http://www.w3.org/2000/svg">
<path d="M24.7346 2.41667H4.26542C4.03532 2.41348 3.80685 2.45564 3.59306 2.54075C3.37926 2.62586 3.18432 2.75225 3.01938 2.91271C2.85444 3.07316 2.72271 3.26454 2.63174 3.47591C2.54076 3.68728 2.49232 3.9145 2.48917 4.14459V24.8554C2.49232 25.0855 2.54076 25.3127 2.63174 25.5241C2.72271 25.7355 2.85444 25.9268 3.01938 26.0873C3.18432 26.2478 3.37926 26.3742 3.59306 26.4593C3.80685 26.5444 4.03532 26.5865 4.26542 26.5833H24.7346C24.9647 26.5865 25.1931 26.5444 25.4069 26.4593C25.6207 26.3742 25.8157 26.2478 25.9806 26.0873C26.1456 25.9268 26.2773 25.7355 26.3683 25.5241C26.4592 25.3127 26.5077 25.0855 26.5108 24.8554V4.14459C26.5077 3.9145 26.4592 3.68728 26.3683 3.47591C26.2773 3.26454 26.1456 3.07316 25.9806 2.91271C25.8157 2.75225 25.6207 2.62586 25.4069 2.54075C25.1931 2.45564 24.9647 2.41348 24.7346 2.41667ZM9.77542 22.6442H6.15042V11.7692H9.77542V22.6442ZM7.96292 10.2467C7.46298 10.2467 6.98353 10.0481 6.63002 9.69457C6.27651 9.34106 6.07792 8.86161 6.07792 8.36167C6.07792 7.86174 6.27651 7.38228 6.63002 7.02878C6.98353 6.67527 7.46298 6.47667 7.96292 6.47667C8.22838 6.44657 8.49721 6.47287 8.75181 6.55387C9.0064 6.63486 9.24102 6.76871 9.44029 6.94667C9.63957 7.12462 9.79901 7.34266 9.90818 7.58651C10.0173 7.83035 10.0738 8.09451 10.0738 8.36167C10.0738 8.62884 10.0173 8.89299 9.90818 9.13684C9.79901 9.38069 9.63957 9.59872 9.44029 9.77668C9.24102 9.95463 9.0064 10.0885 8.75181 10.1695C8.49721 10.2505 8.22838 10.2768 7.96292 10.2467ZM22.8496 22.6442H19.2246V16.8079C19.2246 15.3458 18.705 14.3913 17.3879 14.3913C16.9803 14.3942 16.5834 14.5221 16.2507 14.7576C15.918 14.9931 15.6654 15.3249 15.5271 15.7083C15.4325 15.9923 15.3916 16.2914 15.4062 16.5904V22.6321H11.7812C11.7812 22.6321 11.7812 12.7479 11.7812 11.7571H15.4062V13.2917C15.7356 12.7203 16.2145 12.2495 16.7915 11.9301C17.3686 11.6107 18.0218 11.4548 18.6808 11.4792C21.0975 11.4792 22.8496 13.0379 22.8496 16.385V22.6442Z" fill="white"/>
</svg>
