<svg width="33" height="33" viewBox="0 0 33 33" fill="none" xmlns="http://www.w3.org/2000/svg">
<path d="M30.25 7.97504C29.2165 8.42342 28.1235 8.71983 27.005 8.85504C28.185 8.15011 29.0693 7.04112 29.4938 5.73379C28.3849 6.39388 27.171 6.85895 25.905 7.10879C25.0588 6.19108 23.9318 5.5802 22.701 5.37196C21.4701 5.16373 20.205 5.36991 19.104 5.95818C18.0029 6.54645 17.1283 7.48352 16.6172 8.62244C16.1061 9.76136 15.9875 11.0377 16.28 12.2513C14.038 12.1379 11.8449 11.5541 9.84315 10.5379C7.84144 9.5216 6.07591 8.09562 4.66125 6.35254C4.16506 7.21903 3.90434 8.2003 3.905 9.19879C3.90324 10.1261 4.1308 11.0394 4.56741 11.8574C5.00403 12.6755 5.63615 13.3729 6.4075 13.8875C5.51097 13.8632 4.63359 13.6226 3.85 13.1863V13.255C3.85672 14.5543 4.31199 15.8113 5.13881 16.8135C5.96562 17.8157 7.11323 18.5016 8.3875 18.755C7.89698 18.9043 7.3877 18.983 6.875 18.9888C6.5201 18.9846 6.16608 18.9525 5.81625 18.8925C6.17913 20.0102 6.88136 20.9869 7.82523 21.6868C8.7691 22.3867 9.90767 22.7749 11.0825 22.7975C9.09865 24.3585 6.64934 25.2105 4.125 25.2175C3.66539 25.2191 3.20614 25.1915 2.75 25.135C5.32734 26.7991 8.33087 27.6825 11.3988 27.6788C13.5158 27.7008 15.6161 27.3007 17.5768 26.5019C19.5375 25.7031 21.3194 24.5216 22.8184 23.0265C24.3174 21.5313 25.5034 19.7525 26.3073 17.7938C27.1111 15.8351 27.5166 13.7359 27.5 11.6188C27.5 11.385 27.5 11.1375 27.5 10.89C28.579 10.0854 29.5095 9.099 30.25 7.97504Z" fill="white"/>
</svg>
