<svg width="33" height="33" viewBox="0 0 33 33" fill="none" xmlns="http://www.w3.org/2000/svg">
<path d="M31.625 13.3513C31.693 11.3832 31.2626 9.42981 30.3738 7.67254C29.7707 6.95149 28.9337 6.46489 28.0088 6.29754C24.1829 5.95039 20.3411 5.8081 16.5 5.87129C12.6729 5.80523 8.84498 5.94293 5.03251 6.28379C4.27876 6.4209 3.58122 6.77445 3.02501 7.30129C1.78751 8.44254 1.65001 10.395 1.51251 12.045C1.31301 15.0117 1.31301 17.9884 1.51251 20.955C1.55229 21.8837 1.69056 22.8056 1.92501 23.705C2.0908 24.3995 2.42623 25.042 2.90126 25.575C3.46125 26.1298 4.17504 26.5034 4.95001 26.6475C7.91439 27.0135 10.9013 27.1651 13.8875 27.1013C18.7 27.17 22.9213 27.1013 27.9125 26.7163C28.7065 26.5811 29.4404 26.2069 30.0163 25.6438C30.4012 25.2587 30.6887 24.7873 30.855 24.2688C31.3467 22.7599 31.5883 21.1807 31.57 19.5938C31.625 18.8238 31.625 14.1763 31.625 13.3513ZM13.3925 20.4188V11.9075L21.5325 16.1838C19.25 17.4488 16.2388 18.8788 13.3925 20.4188Z" fill="white"/>
</svg>
