<svg width="26" height="28" viewBox="0 0 26 28" fill="none" xmlns="http://www.w3.org/2000/svg">
<path d="M13.325 14.124C13.9031 13.6044 14.3667 12.9617 14.6845 12.2396C15.0022 11.5175 15.1667 10.7329 15.1667 9.93896C15.1667 8.44712 14.596 7.01638 13.5802 5.96149C12.5644 4.9066 11.1866 4.31397 9.75001 4.31397C8.31342 4.31397 6.93567 4.9066 5.91985 5.96149C4.90403 7.01638 4.33334 8.44712 4.33334 9.93896C4.33334 10.7329 4.4978 11.5175 4.81556 12.2396C5.13333 12.9617 5.59697 13.6044 6.17501 14.124C4.65849 14.8371 3.37185 15.9887 2.46891 17.4411C1.56596 18.8935 1.08494 20.5852 1.08334 22.314C1.08334 22.6123 1.19748 22.8985 1.40064 23.1095C1.60381 23.3204 1.87936 23.439 2.16668 23.439C2.45399 23.439 2.72954 23.3204 2.93271 23.1095C3.13587 22.8985 3.25001 22.6123 3.25001 22.314C3.25001 20.5238 3.93483 18.8069 5.15382 17.541C6.3728 16.2751 8.0261 15.564 9.75001 15.564C11.4739 15.564 13.1272 16.2751 14.3462 17.541C15.5652 18.8069 16.25 20.5238 16.25 22.314C16.25 22.6123 16.3641 22.8985 16.5673 23.1095C16.7705 23.3204 17.046 23.439 17.3333 23.439C17.6207 23.439 17.8962 23.3204 18.0994 23.1095C18.3025 22.8985 18.4167 22.6123 18.4167 22.314C18.4151 20.5852 17.9341 18.8935 17.0311 17.4411C16.1282 15.9887 14.8415 14.8371 13.325 14.124ZM9.75001 13.314C9.10722 13.314 8.47887 13.116 7.94441 12.7452C7.40995 12.3743 6.99339 11.8472 6.7474 11.2305C6.50142 10.6138 6.43706 9.93522 6.56246 9.28054C6.68786 8.62585 6.99739 8.02448 7.45191 7.55248C7.90643 7.08048 8.48553 6.75904 9.11597 6.62881C9.74641 6.49859 10.3999 6.56543 10.9937 6.82087C11.5876 7.07632 12.0952 7.5089 12.4523 8.06392C12.8094 8.61893 13 9.27145 13 9.93896C13 10.8341 12.6576 11.6925 12.0481 12.3255C11.4386 12.9584 10.612 13.314 9.75001 13.314ZM20.3017 13.674C20.995 12.8632 21.4479 11.8617 21.6058 10.7898C21.7637 9.71804 21.62 8.62167 21.1919 7.63271C20.7638 6.64376 20.0696 5.80436 19.1929 5.21557C18.3161 4.62677 17.2941 4.31368 16.25 4.31397C15.9627 4.31397 15.6871 4.43249 15.484 4.64347C15.2808 4.85445 15.1667 5.1406 15.1667 5.43897C15.1667 5.73733 15.2808 6.02348 15.484 6.23446C15.6871 6.44544 15.9627 6.56397 16.25 6.56397C17.112 6.56397 17.9386 6.91954 18.5481 7.55248C19.1576 8.18542 19.5 9.04386 19.5 9.93896C19.4985 10.5299 19.3476 11.11 19.0624 11.6213C18.7772 12.1326 18.3678 12.5573 17.875 12.8527C17.7144 12.9489 17.5802 13.0863 17.4854 13.2518C17.3906 13.4173 17.3382 13.6052 17.3333 13.7977C17.3288 13.9887 17.3712 14.1777 17.4565 14.347C17.5418 14.5163 17.6672 14.6602 17.8208 14.7652L18.2433 15.0577L18.3842 15.1365C19.69 15.7796 20.7917 16.797 21.5594 18.0686C22.3271 19.3402 22.7289 20.8131 22.7175 22.314C22.7175 22.6123 22.8316 22.8985 23.0348 23.1095C23.238 23.3204 23.5135 23.439 23.8008 23.439C24.0882 23.439 24.3637 23.3204 24.5669 23.1095C24.77 22.8985 24.8842 22.6123 24.8842 22.314C24.893 20.5876 24.4767 18.8875 23.6746 17.3753C22.8725 15.8631 21.7115 14.5889 20.3017 13.674Z" fill="#606060"/>
</svg>
